<?xml version="1.0" encoding="UTF-8"?>
<svg id="Layer_1" data-name="Layer 1" xmlns="http://www.w3.org/2000/svg" viewBox="0 0 80 80">
  <defs>
    <style>
      .cls-1 {
        fill: #282322;
      }

      .cls-2 {
        fill: #231f20;
      }

      .cls-3 {
        fill: #ea262b;
      }

      .cls-4 {
        fill: #0d0d0d;
      }

      .cls-5 {
        fill: #fff;
      }

      .cls-6 {
        fill: #8fc542;
      }
    </style>
  </defs>
  <circle class="cls-2" cx="39.82" cy="39.73" r="38.87"/>
  <g>
    <g>
      <path class="cls-5" d="M44.97,31.56c1.61.57,3.33.69,4.49.69.97,0,1.94-.09,2.73-.25,1.28-.26,2.84-.9,4.18-1.72,1.13-.69,2.6-1.8,3.16-3.2.29-.73.27-1.45-.06-1.95-.24-.36-.64-.57-1.08-.57-.4,0-.81.16-1.23.47-1.71,1.29-3.1,2.08-4.73,2.08-.44,0-.89-.06-1.34-.18-1.04-.27-1.84-.86-2.68-1.48-.42-.31-.84-.62-1.32-.92-.73-.45-1.39-.65-2.13-.65-.39,0-.8.05-1.29.17-.5.12-1.06.41-1.55.8-.36-.24-.47-.41-.51-.48,0-.02-.03-.11-.04-.16-.06-.25-.23-1.02-1.02-1.02-.12,0-.24.02-.36.06-.1.03-.19.08-.28.13-.13-.08-.3-.16-.46-.19-.06,0-.11-.01-.16-.01-.82,0-.97.77-1.02,1.02,0,.04-.02.11-.03.13-.04.11-.22.31-.52.51-.49-.39-1.05-.68-1.57-.8-.5-.11-.91-.17-1.29-.17-.72,0-1.34.19-2.04.6-.46.28-.89.6-1.31.91-.47.35-.95.71-1.46.99-.87.47-1.76.71-2.64.71-1.33,0-2.68-.51-4.15-1.56-.07-.05-.15-.12-.25-.2-.39-.33-.93-.78-1.58-.78-.32,0-.61.11-.87.32-.68.56-.8,1.82.47,3.37,1.52,1.87,4.46,3.3,6.59,3.74.86.18,1.84.27,2.83.27,1.88,0,3.66-.34,5-.97,1.75-.82,2.84-2.12,3.14-3.77.05-.28.07-.53.07-.77.17-.09.32-.18.47-.27l.06-.03c.12-.07.45-.27.72-.47.35.26.79.53,1.24.75,0,.64.17,1.33.51,2.11.53,1.21,1.64,2.12,3.3,2.71Z"/>
      <path class="cls-5" d="M50.86,39.51v-.34c-.07-1.87-.15-4.7-2.13-5.79,0,0-.73-.37-1.08-.37h-5.33c-.37,0-.67.3-.67.67v.67c0,.34.24.7.75.73.02.23.02.52.02.77,0,.17,0,.33,0,.48.14,3.64.14,6.76,0,9.51,0,.09,0,.2,0,.33,0,.56-.04.82-.08.93,0,0-.02,0-.02,0-.16,0-.32.06-.44.16-.15.13-.24.31-.24.51v.67c0,.46.42.74.81.74.02,0,.05,0,.08,0,.28-.03.58-.04.92-.04.45,0,.9.02,1.34.04.45.02.87.04,1.3.04,1.85,0,3.83-.42,4.48-3.49.4-1.9.37-4.12.29-6.23ZM45.28,41.14c.03-1.5.06-3.04.01-4.55.04-.23.05-.5.05-.81,0-.33.02-.57.03-.71.07,0,.17,0,.31,0,.57,0,1.04.06,1.13.09.95.37.98,2.55.99,3.73,0,.18,0,.35,0,.49l.02.56c.06,1.83.13,4.11-.19,5.8-.2,1.04-.61,1.39-1.65,1.39-.18,0-.37-.01-.59-.03,0,0,0,0,0,0-.03-.13-.08-.41-.11-1.03-.07-1.62-.04-3.3,0-4.93Z"/>
      <path class="cls-5" d="M37.89,47.1h0c-.03-.12-.08-.34-.15-.71-.02-.12-.05-.23-.06-.32-.19-.87-.37-1.77-.54-2.63l-.03-.13c-.7-3.62-1.2-6.79-1.53-9.7-.04-.34-.33-.6-.67-.6h-1.61c-.33,0-.61.24-.66.57-.15.87-.29,1.75-.43,2.63v.06c-.22,1.3-.44,2.65-.67,3.97-.09.51-.18,1.03-.26,1.55-.19,1.14-.39,2.31-.62,3.45-.04-.7-.2-1.43-.5-2.14-.31-.74-.76-1.51-1.24-2.34-1.07-1.84-2.29-3.92-1.77-5.6.02-.08.09-.29.4-.29.2,0,.4.09.53.23.09.11.13.24.12.39-.02.19.04.38.17.52.13.14.31.22.5.22h.78c.37,0,.67-.3.67-.67v-2.22c0-.37-.3-.67-.67-.67h-.78c-.22,0-.41.1-.53.26-.26-.08-.54-.12-.84-.12-.87,0-1.74.33-2.28.86-2.17,2.14-.48,5.87.35,7.38.22.41.48.82.74,1.22.62.98,1.27,2,1.41,3.03.07.54.04,1.31-.29,1.72-.14.17-.31.26-.55.28-.04,0-.09,0-.13,0-.37,0-.78-.11-1.1-.93-.07-.17-.21-.31-.38-.38-.08-.03-.16-.05-.25-.05-.1,0-.2.02-.29.07l-.49.24s-.06.03-.09.05c-.01-.1-.03-.2-.04-.28-.86-4.52-1.59-9.87-2.18-15.93v-.02s0-.02,0-.02c0-.2.03-.61-.33-.86-.11-.08-.25-.12-.38-.12h-1.57c-.32,0-.6.23-.66.54-.07.33-.1.67-.13.99-.02.17-.03.33-.05.49l-.07.57c-.23,1.77-.46,3.59-.71,5.39-.1.75-.2,1.52-.3,2.29-.29,2.24-.59,4.54-1,6.69-.07-.12-.17-.22-.31-.29l-.57-.26c-.09-.04-.18-.06-.28-.06-.11,0-.22.03-.32.08-.19.1-.32.29-.34.5-.05.36-.24.74-.48.9-.19.13-.46.21-.74.21-.31,0-.6-.1-.77-.26-.56-.54-.59-1.41-.62-2.34,0-.14,0-.29-.02-.43-.11-2.45-.13-5.1-.04-8.35,0-.19,0-.41,0-.64,0-1.08.02-2.89.58-3.57.21-.26.56-.42.93-.42.08,0,.16,0,.23.02-.01.02-.02.05-.04.07-.25.54-.37,1.76.07,2.55.23.41.58.67,1.01.73.09.01.18.02.27.02.52,0,.99-.23,1.3-.65.53-.71.57-1.87.33-2.65-.43-1.45-1.74-2.38-3.33-2.38-.86,0-1.7.3-2.35.83-1.93,1.59-1.99,4.05-2.04,6.22,0,.15,0,.29-.01.44-.05,1.66-.09,3.58-.05,5.48v.18c.06,2.44.17,6.99,3.85,7.4.19.02.38.03.56.03.96,0,1.73-.31,2.29-.92h0c0,.38.3.68.67.68h2.26c.37,0,.67-.3.67-.67v-.96c0-.18-.08-.36-.21-.49-.13-.12-.29-.19-.46-.19-.01,0-.02,0-.04,0-.01,0-.02,0-.03,0,0,0,0,0,0,0,.02-.38.09-.81.16-1.23,0-.05.02-.11.03-.16l1.91.03s0,.04,0,.06c.03.19.05.36.07.53,0,.05.01.12.02.19.02.16.04.39.05.59-.02,0-.03,0-.04,0h-.04c-.18,0-.35.07-.47.19-.14.13-.21.31-.21.49v.96c0,.37.3.67.67.67h3.39c.3,0,.55-.2.64-.47.47.39,1.05.63,1.68.68.15.01.29.02.43.02,1.19,0,1.97-.4,2.49-.87h0c0,.38.3.68.67.68h2.26c.37,0,.67-.3.67-.67v-.74c0-.18-.08-.36-.21-.49-.13-.12-.29-.19-.47-.19,0,0-.02,0-.03,0h0c.03-.21.07-.48.14-.83h1.95s.09.83.09.83c0,0-.01,0-.02,0-.01,0-.03,0-.04,0-.17,0-.34.07-.46.18-.13.13-.21.31-.21.49v.74c0,.37.3.67.67.67h3.39c.37,0,.67-.3.67-.67v-.74c0-.33-.26-.68-.7-.68ZM34.17,44.14h-1.28l.71-3.78.57,3.78ZM20.53,43.14h-1.33l.74-4.99.6,4.99Z"/>
      <path class="cls-5" d="M69.82,31.35c.15,0,.3-.05.42-.15.16-.13.25-.32.25-.52v-.96c0-.37-.3-.67-.67-.67h-3.09c-.37,0-.67.3-.67.67v.96c0,.35.26.64.61.67.04,0,.08,0,.12,0,0,.13.01.34.01.67,0,.13,0,.24,0,.31.17,4.4.09,9.13,0,12.75,0,.22,0,.43,0,.64-.12-.17-.32-.28-.54-.28h-.7c-.33,0-.61.24-.66.56-.02.1-.02.21-.03.32,0,.11-.02.19-.02.25h-2.97s0,0,0,0c-.09-.37-.09-.83-.08-1.27,0-.2,0-.41,0-.62-.12-4.52-.12-8.39,0-11.84,0-.16,0-.34,0-.51,0-.35,0-.74.05-1,.02,0,.03,0,.05,0,.07,0,.14,0,.22,0,.18,0,.35-.07.48-.2.13-.13.2-.3.2-.48v-.96c0-.37-.3-.67-.67-.67h-3.35c-.37,0-.67.3-.67.67v.96c0,.33.26.68.69.68.01,0,.02,0,.04,0,.02.19.05.58.05,1.33,0,.16,0,.29,0,.39.12,3.77.12,7.87,0,11.84,0,.08,0,.2,0,.36,0,.4,0,.71-.02.95-.12-.12-.29-.2-.48-.2h-.7c-.37,0-.67.3-.67.67,0,.07,0,.13,0,.18-.07,0-.14,0-.21,0-.37,0-.74.01-1.1.03-.35.01-.71.03-1.05.03-.26,0-.5,0-.71-.02-.04-.28-.05-.68-.06-.96v-.12c-.04-.95-.02-1.93,0-2.88.01-.66.02-1.34.02-2.02h.27c.02.07.04.15.04.2-.04.19,0,.39.13.54.13.16.32.26.53.26h.7c.37,0,.67-.3.67-.67v-2.65c0-.37-.3-.67-.67-.67h-.7c-.37,0-.67.3-.67.67,0,.14-.01.23-.02.29h-.28l.03-2.87c.05-.21.05-.44.04-.65,0-.13,0-.22,0-.28.12,0,.29,0,.48,0,.18,0,.31,0,.41,0,.01.09.03.19.02.29,0,.18.07.36.19.48.13.13.3.2.48.2h.7c.37,0,.67-.3.67-.67v-1.7c0-.37-.3-.67-.67-.67h-5.35c-.37,0-.67.3-.67.67v.74c0,.37.3.67.66.67h.04s0,0,0,0c.02,0,.05,0,.07,0,.02.16.04.42.05.77v.08c.09,2.31.04,4.68,0,6.98-.03,1.36-.05,2.77-.05,4.15-.03,0-.06,0-.09,0-.18,0-.35.07-.48.19-.13.13-.2.3-.2.48v.78c0,.37.3.67.67.67h7.49c.09,0,.18-.02.27-.06.04,0,.08.01.12.01h7.49c.08,0,.16-.01.24-.04.08.03.16.04.24.04h3.09c.37,0,.67-.3.67-.67v-.96c0-.19-.08-.38-.23-.5-.12-.11-.28-.17-.45-.17-.02,0-.04,0-.07,0,0-.02,0-.03,0-.05-.02-.27-.01-.59,0-.9,0-.24.01-.49,0-.72-.09-3.93-.16-8.53,0-12.88,0-.14,0-.28,0-.44,0-.1-.01-.35,0-.51.03,0,.05,0,.08,0Z"/>
    </g>
    <g>
      <path class="cls-2" d="M41.98,28.72c.5,1.12,1.54,1.97,3.1,2.53,1.57.56,3.25.67,4.38.67.95,0,1.9-.09,2.66-.24,2.32-.47,6.18-2.42,7.1-4.71.25-.62.24-1.23-.03-1.63-.18-.27-.47-.42-.8-.42-.32,0-.66.14-1.02.41-1.76,1.33-3.21,2.15-4.93,2.15-.46,0-.94-.06-1.42-.19-1.11-.29-1.93-.9-2.79-1.54-.41-.3-.83-.62-1.3-.9-.68-.42-1.28-.6-1.96-.6-.36,0-.75.05-1.21.16-.52.12-1.11.45-1.6.88-.28-.16-.69-.44-.84-.75-.02-.05-.04-.14-.06-.23-.06-.27-.17-.76-.69-.76h0c-.08,0-.17.01-.26.04-.15.05-.28.14-.37.25-.02-.02-.04-.04-.06-.06-.09-.08-.29-.21-.46-.23-.04,0-.08,0-.12,0h0c-.55,0-.65.51-.69.75-.01.07-.03.14-.05.19-.09.25-.43.55-.87.8-.48-.44-1.07-.76-1.61-.88-.47-.11-.86-.16-1.21-.16-.65,0-1.23.17-1.86.55-.45.27-.87.59-1.28.89-.48.36-.97.73-1.5,1.01-.92.5-1.86.75-2.8.75-1.4,0-2.82-.53-4.34-1.63-.08-.05-.17-.13-.27-.21-.37-.31-.84-.7-1.36-.7-.24,0-.46.08-.66.24-.87.72-.09,2.16.51,2.9,1.47,1.81,4.33,3.19,6.39,3.62.84.17,1.79.27,2.76.27,1.84,0,3.56-.33,4.86-.94,1.65-.77,2.67-1.99,2.95-3.53.06-.34.08-.63.05-.92.23-.1.44-.23.64-.34l.06-.03c.12-.07.63-.39.91-.61,0,0,0,0,.01,0,.41.34.98.69,1.56.96-.05.64.11,1.36.47,2.18Z"/>
      <path class="cls-2" d="M50.52,39.52v-.34c-.06-1.79-.14-4.51-1.96-5.51-.04-.02-.69-.33-.92-.33h-5.33c-.19,0-.34.15-.34.34v.67c0,.07.02.4.5.4h.06s.06,0,.06,0c.05,0,.08,0,.1,0,.07.3.07.72.07,1.1,0,.17,0,.33,0,.47.14,3.65.14,6.78,0,9.55,0,.09,0,.19,0,.31,0,.41-.01,1.27-.33,1.27-.02,0-.04,0-.06,0-.02,0-.03,0-.05,0-.08,0-.16.03-.22.08-.07.06-.12.16-.12.26v.67c0,.28.28.41.47.41.01,0,.03,0,.05,0h0c.29-.03.6-.04.96-.04.45,0,.91.02,1.36.04.44.02.86.04,1.28.04,1.8,0,3.55-.39,4.15-3.23.39-1.86.36-4.06.29-6.15ZM44.94,41.14c.03-1.5.06-3.06,0-4.58.04-.2.05-.47.05-.79,0-.3.01-.85.1-.99.02-.01.04-.02.06-.03.02,0,.17-.03.52-.03.57,0,1.11.06,1.25.11,1.17.45,1.19,2.7,1.21,4.04,0,.18,0,.34,0,.49l.02.56c.06,1.85.13,4.14-.2,5.88-.23,1.2-.78,1.67-1.98,1.67-.19,0-.39-.01-.63-.03-.21-.02-.23-.06-.26-.13-.03-.08-.12-.36-.16-1.22-.07-1.63-.04-3.32,0-4.95Z"/>
      <path class="cls-2" d="M16.25,46.04l-.57-.26s-.09-.03-.14-.03c-.06,0-.11.01-.16.04-.09.05-.16.14-.17.25-.06.46-.31.91-.61,1.13-.24.18-.58.28-.93.28-.4,0-.77-.13-1.01-.36-.66-.63-.69-1.62-.72-2.58,0-.14,0-.28-.02-.42-.12-2.46-.13-5.12-.04-8.37,0-.19,0-.4,0-.63,0-1.2.02-3.01.65-3.78.28-.34.72-.54,1.19-.54.28,0,.55.08.76.22-.09.08-.18.19-.26.35-.22.49-.31,1.58.06,2.25.18.32.44.51.76.56.07.01.15.02.22.02.42,0,.78-.18,1.03-.52.46-.61.48-1.67.28-2.35-.39-1.3-1.57-2.14-3.01-2.14h0c-.79,0-1.54.27-2.13.75-1.81,1.5-1.87,3.87-1.92,5.97,0,.15,0,.29-.01.44-.05,1.65-.09,3.57-.05,5.46v.18c.06,2.5.16,6.69,3.55,7.07.18.02.35.03.52.03,1.56,0,2.54-.89,2.91-2.63.03-.15-.05-.31-.19-.37Z"/>
      <path class="cls-2" d="M37.89,47.43s-.03,0-.05,0c-.02,0-.04,0-.06,0-.11,0-.13-.03-.13-.04-.08-.14-.19-.68-.24-.95-.02-.12-.04-.23-.06-.31-.2-.87-.37-1.77-.54-2.64l-.03-.13c-.7-3.63-1.2-6.81-1.53-9.73-.02-.17-.16-.3-.33-.3h-1.61c-.16,0-.3.13-.33.29-.15.89-.3,1.79-.44,2.68-.21,1.3-.43,2.65-.66,3.98-.09.51-.18,1.02-.26,1.54-.27,1.61-.55,3.28-.92,4.83-.02.07-.03.13-.04.2-.11.52-.17.59-.35.59-.03,0-.06,0-.09,0-.01,0-.03,0-.04,0-.08,0-.16.03-.22.08-.07.06-.11.16-.11.25v.74c0,.19.15.34.34.34h2.26c.19,0,.34-.15.34-.34v-.74c0-.09-.04-.18-.1-.24-.06-.06-.15-.09-.23-.09,0,0,0,0-.01,0-.01,0-.03,0-.05,0-.12,0-.25,0-.34-.02,0-.33.16-1.12.21-1.4,0-.03.01-.06.02-.08h2.53s.16,1.47.16,1.47c-.05.02-.15.04-.31.04-.04,0-.07,0-.1,0,0,0-.01,0-.02,0-.09,0-.17.03-.23.09-.07.06-.11.15-.11.24v.74c0,.19.15.34.34.34h3.39c.19,0,.34-.15.34-.34v-.74c0-.17-.13-.34-.36-.34ZM34.56,44.48h-2.08l1.15-6.13.93,6.13Z"/>
      <path class="cls-2" d="M69.6,30.99s.09,0,.14.02c.02,0,.05,0,.07,0,.08,0,.15-.03.21-.07.08-.06.12-.16.12-.26v-.96c0-.19-.15-.34-.34-.34h-3.09c-.19,0-.34.15-.34.34v.96c0,.17.13.32.31.34.03,0,.06,0,.1,0,.04,0,.08,0,.12,0,.03,0,.07,0,.1,0,.02,0,.03,0,.05,0,.07.2.06.79.06,1.02,0,.12,0,.22,0,.29.17,4.41.09,9.14,0,12.77,0,.23,0,.47,0,.7,0,.44.01.89-.04,1.31,0,.04-.01.07-.02.09-.02,0-.04,0-.08,0-.04,0-.08,0-.13,0-.04,0-.08,0-.12,0,0,0,0,0,0,0-.05,0-.1.01-.14.03v-1.09c0-.19-.15-.34-.34-.34h-.7c-.16,0-.31.12-.33.28-.01.08-.02.18-.03.28,0,.13-.03.49-.1.56h-3.43s-.08-.08-.12-.26c-.11-.41-.1-.89-.09-1.36,0-.2,0-.4,0-.6-.12-4.53-.12-8.41,0-11.86,0-.15,0-.32,0-.49,0-.4,0-.85.08-1.15.06-.19.07-.19.23-.19.05,0,.09,0,.15,0,.06,0,.13,0,.2,0h0c.09,0,.17-.04.24-.1.06-.06.1-.15.1-.24v-.96c0-.19-.15-.34-.34-.34h-3.35c-.19,0-.34.15-.34.34v.96c0,.17.13.34.36.34.02,0,.05,0,.08,0,.03,0,.07,0,.11,0,.06,0,.09,0,.1.01.12.22.12,1.31.12,1.66,0,.15,0,.29,0,.38.12,3.78.12,7.88,0,11.86,0,.08,0,.2,0,.35,0,.4-.01,1.59-.11,1.89-.04.01-.11.03-.23.03-.03,0-.05,0-.08,0,0,0-.01,0-.02,0-.02,0-.04,0-.05.01v-.5c0-.19-.15-.34-.34-.34h-.7c-.19,0-.34.15-.34.34,0,.4-.06.5-.09.52-.15,0-.3,0-.47,0-.36,0-.73.01-1.09.03-.35.01-.72.03-1.07.03-.29,0-.55,0-.78-.03-.14-.01-.19-.02-.21-.03,0,0-.01-.03-.03-.11-.05-.29-.07-.78-.08-1.14v-.12c-.04-.96-.02-1.94,0-2.9.01-.77.03-1.56.01-2.35h.83c.09.12.17.47.16.58-.03.1,0,.21.06.29.06.08.16.13.27.13h.7c.19,0,.34-.15.34-.34v-2.65c0-.19-.15-.34-.34-.34h-.7c-.18,0-.34.15-.34.33,0,.43-.09.55-.12.57-.03.01-.08.04-.11.05h-.75l.04-3.25c.05-.18.05-.39.04-.61,0-.45.02-.6.11-.61.08,0,.37-.02.71-.02.37,0,.58.01.67.02.06.11.11.4.1.62,0,.09.03.18.1.24.06.06.15.1.24.1h.7c.19,0,.34-.15.34-.34v-1.7c0-.19-.15-.34-.34-.34h-5.35c-.19,0-.34.15-.34.34v.74c0,.18.15.33.33.34h.04c.05,0,.1,0,.15,0,.04,0,.07,0,.1,0,.05,0,.07,0,.07,0,0,0,.01.02.03.06.08.21.1.77.11,1.04v.08c.09,2.32.04,4.7,0,7-.03,1.44-.06,2.93-.05,4.39-.01.05-.03.07-.03.07,0,0-.04.02-.16.02-.04,0-.08,0-.12,0-.04,0-.08,0-.12,0,0,0,0,0,0,0-.09,0-.17.04-.24.1-.06.06-.1.15-.1.24v.78c0,.19.15.34.34.34h7.49c.09,0,.17-.04.23-.09.05.03.1.05.16.05h7.49c.09,0,.18-.04.24-.1.06.06.15.1.24.1h3.09c.19,0,.34-.15.34-.34v-.96c0-.1-.04-.19-.11-.25-.06-.06-.14-.09-.22-.09-.01,0-.03,0-.04,0-.07,0-.13.01-.18.01-.1,0-.13-.02-.13-.02-.01-.02-.04-.09-.06-.36-.02-.29-.01-.62,0-.94,0-.23.01-.47,0-.7-.09-3.93-.16-8.54,0-12.9,0-.13,0-.27,0-.41-.01-.27-.03-.73.08-.85,0,0,.03-.03.11-.03Z"/>
      <path class="cls-2" d="M29.85,43.21c-.3-.72-.75-1.48-1.22-2.3-1.11-1.9-2.37-4.05-1.8-5.87.14-.46.52-.52.73-.52h0c.29,0,.59.13.78.34.11.12.24.34.2.65-.01.1.02.19.08.26.06.07.16.11.25.11h.78c.19,0,.34-.15.34-.34v-2.22c0-.19-.15-.34-.34-.34h-.78c-.19,0-.34.15-.34.34v.02c-.3-.14-.65-.21-1.03-.21-.78,0-1.56.29-2.04.76-2,1.98-.38,5.54.41,6.98.22.4.48.81.73,1.2.64,1.01,1.31,2.06,1.46,3.16.09.63.04,1.49-.36,1.98-.19.24-.45.37-.79.4-.05,0-.11,0-.16,0-.66,0-1.11-.36-1.42-1.14-.03-.09-.1-.16-.19-.19-.04-.02-.08-.02-.12-.02-.05,0-.1.01-.15.03l-.49.24c-.14.07-.22.23-.18.38.02.09.05.18.08.27,0,0-.02,0-.03,0-.03,0-.06,0-.08.01-.02,0-.05,0-.07,0-.17,0-.26-.6-.29-.85-.01-.1-.03-.2-.04-.28-.86-4.53-1.59-9.9-2.19-15.97,0-.02,0-.05,0-.07,0-.17.02-.42-.19-.56-.06-.04-.12-.06-.19-.06h-1.57c-.16,0-.3.11-.33.27-.06.31-.1.64-.13.96-.02.17-.03.34-.05.5l-.07.57c-.23,1.77-.47,3.6-.71,5.39-.1.75-.2,1.51-.3,2.28-.3,2.32-.61,4.73-1.05,6.96,0,.04-.02.1-.03.15-.03.18-.1.55-.17.65-.01.02-.03.05-.14.05-.03,0-.05,0-.07,0-.03,0-.05,0-.06,0-.22,0-.36.17-.36.34v.96c0,.19.15.34.34.34h2.26c.19,0,.34-.15.34-.34v-.96c0-.09-.04-.18-.1-.24-.06-.06-.15-.09-.23-.09,0,0-.01,0-.02,0-.09,0-.17,0-.24,0-.07,0-.12,0-.15,0,0-.06,0-.18,0-.36.02-.4.1-.84.17-1.26.02-.15.05-.29.07-.44l2.49.03c.01.12.03.23.05.35.03.19.05.37.07.55,0,.06.01.12.02.19.03.28.07.7.05.9,0,.02,0,.02,0,.02,0,0,0,0,0,0,0,0-.05.03-.23.03-.06,0-.12,0-.17,0,0,0-.01,0-.02,0-.09,0-.18.03-.24.09-.07.06-.11.15-.11.24v.96c0,.19.15.34.34.34h3.39c.19,0,.34-.15.34-.34v-.64c.44.68,1.16,1.13,2.01,1.2.14.01.28.02.41.02,1.54,0,2.34-.72,2.74-1.33.75-1.13.79-2.86.1-4.51ZM20.91,43.48h-2.1l1.16-7.87.94,7.87Z"/>
    </g>
    <g>
      <path class="cls-1" d="M39.64,24.03c.11.11.18.3.22.45.03.11-.05.31.1.27-.02-.29.14-.75.44-.84.53-.17.46.46.61.77.21.45.77.79,1.19,1.02.43-.42,1.04-.83,1.63-.97,1.14-.27,1.92-.21,2.91.4,1.42.88,2.47,2.03,4.18,2.48,2.64.69,4.64-.51,6.64-2.02,1.14-.86,1.82.06,1.34,1.25-.87,2.18-4.67,4.06-6.85,4.51-2.78.57-8.43.28-9.77-2.76-.31-.7-.54-1.49-.42-2.26-.57-.24-1.24-.61-1.71-1.01-.1-.08-.13-.17-.19-.23-.1-.11-.09.07-.15.13-.12.14-.77.55-.97.67-.28.17-.58.36-.89.44.07.38.05.72-.02,1.09-.75,4.15-6.87,4.62-10.17,3.93-2.1-.44-4.83-1.82-6.2-3.5-.42-.52-1.25-1.86-.56-2.43.64-.53,1.4.35,1.87.68,2.34,1.68,4.84,2.34,7.5.9,1.01-.54,1.83-1.34,2.79-1.91s1.73-.6,2.83-.35c.59.14,1.21.54,1.63.97.44-.22,1.06-.63,1.24-1.1.11-.28.05-.78.5-.72.07.01.22.09.27.15ZM39.66,24.97c.02-.31.02-.86-.39-.87-.03.03.29.81.39.87ZM40.57,24.1c-.4.05-.41.55-.39.87.13.02.07-.04.1-.1.05-.11.35-.72.29-.77ZM34.35,25.45s.07.07.04.13c-.06.03-.15-.04-.17-.04-.06-.08-.13-.26-.24-.26-.1,0-.83.44-.85.5-.02.1.19.27.21.32.01.02.05.25.04.26-.11.02-.19-.07-.26-.13s-.18-.27-.31-.24l-1.47,1.03c.42.94-.16.21-.28.21-.04,0-.53.3-.54.33-.02.1.31.41.26.45-.17.07-.49-.33-.54-.34-.04,0-.28.14-.35.16-.08.1.52.82.59.94.03.05.06.1-.02.11-.2.03-.83-.76-1-.87-2.47.84-4.94-.08-6.95-1.53-.23-.17-.81-.78-1.09-.68-.23.08-.03.64.03.79.26.68.94,1.35,1.49,1.82.09.07.97.76,1.02.7,0-.15.02-.3.06-.44.01-.05.22-.78.33-.64-.01.27-.13,1.23.03,1.39.08.09.33.15.43.26.05-.23.07-.49.23-.68.03-.04,0-.08.1-.05v.72c0,.25.17.31.39.37-.03-.09.13-.62.26-.52.12.15-.03.58.02.65.04.06.94.36,1.08.4,2.51.76,5.27.68,7.74-.19l-.11-.35c-.95.34-1.96.69-2.96.82s-2.1.13-3.02-.23c-.02-.09.03-.06.08-.09.32-.17.78-.01,1.11-.02.7,0,1.52-.08,2.21-.19.85-.13,1.69-.35,2.51-.6.03-.04-.09-.39-.04-.43.14-.14.2.29.22.3.14.1,1.4-.68,1.67-.69.07.13-.17.31-.27.38-.34.27-.82.49-1.23.62-.02.03.14.31.16.31.07,0,.77-.39.89-.46.52-.34,1.28-1.05,1.35-1.7.04-.37-.45-.71-.35-1.15-.2.08-.93.22-1.07.09-.19-.19.19-.83.32-1.02-.09-.11-.22-.14-.32-.24-.12-.11-.36-.47-.41-.5-.11-.07-.96-.1-1-.07-.04.04-.02.24,0,.3ZM45.49,25.15h-.81c-.23,0-.32.33-.48.48-.12.11-.29.19-.42.29.07.24.49.81.31,1.04-.12.16-.85.02-1.05-.07-.04.19-.06.37-.13.55-.17.41-.36.3-.17.86.24.68.97,1.29,1.59,1.63.08.05.47.26.52.26.07,0,.23-.29.27-.37.05-.11.16-.52.18-.54.01,0,.09,0,.13,0,.03.02-.04.5-.06.58-.02.11-.17.46-.09.52.11.08.87.28,1.05.33,2.06.53,4.41.49,6.45-.1.18-.05,1.13-.35,1.22-.43.11-.11-.05-.59.04-.68.17-.16.26.52.33.52.07-.07.29-.11.32-.2.01-.04.05-.37.05-.43,0-.14-.13-.68.09-.35.12.17.17.43.17.64.1-.06.46-.22.5-.3.02-.03.07-.55.07-.63,0-.12-.12-.69-.09-.72,0,0,.1-.01.13.03.17.21.19.77.29,1.01.02.05,0,.07.07.05.85-.64,2.02-1.47,2.42-2.5.06-.17.27-.78-.02-.81-.27-.03-.97.64-1.23.82-1.95,1.38-4.42,2.21-6.78,1.4-.08,0-.35.41-.46.5-.11.1-.79.62-.5.19.19-.28.45-.52.53-.87-.41-.32-.49.08-.85.17-.07-.07.25-.38.26-.48-.15-.01-.45-.29-.55-.3s-.32.27-.43.25c-.18-.03.14-.41.13-.44l-1.49-1.08c-.1-.02-.44.52-.58.39-.09-.09.33-.57.3-.61-.2-.06-.79-.56-.96-.46-.06.04-.18.3-.3.33.02-.17.05-.3,0-.48Z"/>
      <path class="cls-4" d="M42.31,47.78c.89.14.75-1.31.78-1.89.16-3.13.12-6.44,0-9.58-.02-.5.03-1.22-.1-1.69-.09-.36-.69-.11-.69-.27v-.67h5.33c.11,0,.63.22.76.29,1.76.97,1.73,3.82,1.79,5.57.06,1.92.12,4.19-.28,6.07-.88,4.17-4.27,2.61-7.45,2.92-.04,0-.15-.03-.15-.07v-.67ZM45.08,34.43c-.06.01-.18.07-.23.12-.29.31-.13,1.55-.24,1.98.11,3.17-.14,6.42,0,9.58.02.34.06,1.04.19,1.34.11.25.28.31.54.34,1.65.16,2.64-.2,2.97-1.91.37-1.95.24-4.52.19-6.51-.04-1.35.11-4.24-1.43-4.83-.34-.13-1.6-.17-1.97-.1Z"/>
      <path class="cls-4" d="M24.25,47.52v.96h-3.39v-.96c.3.01.73.04.76-.35.03-.28-.04-.85-.07-1.16-.04-.4-.12-.8-.15-1.2l-3.09-.04c-.09.65-.25,1.38-.29,2.03-.04.69.02.75.74.72v.96h-2.26v-.96s.37.09.57-.2c.13-.19.2-.68.25-.93.59-2.98.94-6.23,1.36-9.26.27-1.99.53-3.97.78-5.96.06-.47.08-.97.18-1.43h1.57c.08.05.03.29.04.39.51,5.25,1.21,10.83,2.19,16,.09.49.11,1.56.81,1.38ZM21.29,43.82l-1.28-10.75-1.59,10.75h2.87Z"/>
      <path class="cls-4" d="M12.43,47.33c.6.57,1.7.59,2.37.11.41-.3.69-.86.75-1.36l.57.26c-.35,1.67-1.29,2.54-3.06,2.34-3.18-.36-3.2-4.55-3.26-6.93-.04-1.81,0-3.64.05-5.44.06-2.14,0-4.66,1.81-6.16,1.5-1.24,4.01-.74,4.6,1.23.27.89.1,2.6-1.16,2.42-.84-.12-.82-1.76-.56-2.33.12-.25.3-.3.44-.51-.7-.8-2.04-.67-2.69.13-.83,1.01-.7,3.33-.74,4.61-.07,2.79-.09,5.61.04,8.4.05,1.1-.03,2.4.84,3.23Z"/>
      <path class="cls-4" d="M30.17,47.78c.7.09.73-.53.85-1.04.49-2.05.82-4.3,1.18-6.39.39-2.22.73-4.44,1.11-6.66h1.6c.37,3.26.91,6.52,1.54,9.75.18.93.36,1.86.57,2.79.07.32.19,1.11.34,1.36.17.29.56.17.56.2v.74h-3.39v-.74c.24.01.72,0,.78-.29l-.21-1.88h-3.11c-.05.32-.42,1.9-.23,2.08.09.09.55.1.69.1v.74h-2.26v-.74ZM34.96,44.82l-1.28-8.49-1.59,8.49h2.87Z"/>
      <path class="cls-4" d="M62.11,29.72v.96c-.47,0-.75-.1-.9.43-.15.5-.08,1.21-.1,1.73-.14,3.92-.11,7.95,0,11.88.02.66-.07,1.39.1,2.03.05.21.16.47.4.51h3.52c.43-.07.36-.81.42-1.13h.7v2.35h-7.49v-.96c.16.01.47,0,.59-.13.22-.25.18-2.03.19-2.46.12-3.89.12-7.98,0-11.88-.01-.45.04-1.93-.2-2.24-.17-.22-.59-.1-.59-.13v-.96h3.35Z"/>
      <path class="cls-4" d="M56.24,33.68v1.7h-.7c0-.23-.05-.86-.3-.94-.16-.05-1.32-.04-1.55-.02-.63.07-.31,1.07-.46,1.5l-.04,3.64h1.15s.21-.09.24-.11c.23-.16.26-.59.26-.85h.7v2.65h-.7c.06-.23-.14-1-.41-1h-1.24c.05,1.86-.07,3.74,0,5.59.01.37.03.95.09,1.3s.2.39.54.42c1.11.09,2.35-.06,3.47-.01.36-.06.38-.56.38-.86h.7v1.83h-7.49v-.78c.37,0,.69.07.77-.38-.01-3.79.2-7.64.06-11.44-.01-.32-.03-.94-.13-1.22-.14-.36-.37-.27-.7-.28v-.74h5.35Z"/>
      <path class="cls-4" d="M69.82,29.72v.96c-.98-.21-.72.96-.74,1.59-.15,4.24-.09,8.68,0,12.92.01.54-.04,1.13,0,1.66.04.56.13.74.74.67v.96h-3.09v-.96c.37,0,.63.07.69-.37.09-.66.03-1.38.05-2.04.1-4.19.16-8.61,0-12.79-.01-.32.06-1.36-.17-1.57-.13-.12-.4-.05-.56-.07v-.96h3.09Z"/>
      <path class="cls-4" d="M29.65,33.33v2.22h-.78c.15-1.38-1.95-1.93-2.36-.6-.86,2.75,2.03,5.98,3.04,8.39,1.06,2.55.38,5.61-2.92,5.35-1.06-.08-1.86-.84-2.1-1.85l.49-.24c.34.87.93,1.43,1.92,1.35,1.37-.11,1.6-1.66,1.45-2.76-.22-1.63-1.45-3.07-2.22-4.48-.97-1.76-2.17-4.89-.47-6.57.72-.71,2.3-.94,3.06-.24.05.05.04.13.11.13v-.7h.78Z"/>
      <path class="cls-3" d="M45.49,25.15c.05.17.02.3,0,.48.13-.03.24-.29.3-.33.16-.1.76.4.96.46.03.04-.4.52-.3.61.14.13.48-.41.58-.39l1.49,1.08s-.31.41-.13.44c.11.02.32-.26.43-.25s.41.28.55.3c-.01.1-.33.41-.26.48.36-.1.44-.49.85-.17-.08.35-.34.59-.53.87-.29.43.39-.09.5-.19.1-.1.38-.5.46-.5,2.36.81,4.83-.01,6.78-1.4.26-.18.95-.85,1.23-.82.3.03.09.64.02.81-.4,1.03-1.57,1.86-2.42,2.5-.08.01-.05,0-.07-.05-.1-.23-.12-.8-.29-1.01-.03-.04-.12-.04-.13-.03-.03.03.09.6.09.72,0,.08-.05.6-.07.63-.04.09-.4.24-.5.3,0-.21-.05-.47-.17-.64-.22-.33-.09.21-.09.35,0,.06-.04.39-.05.43-.03.09-.25.13-.32.2-.07,0-.16-.68-.33-.52-.09.09.07.57-.04.68-.09.08-1.04.38-1.22.43-2.05.58-4.39.62-6.45.1-.19-.05-.94-.25-1.05-.33-.08-.05.07-.41.09-.52.01-.08.08-.55.06-.58-.04,0-.12,0-.13,0-.02.02-.13.43-.18.54-.04.08-.2.38-.27.37-.05,0-.44-.22-.52-.26-.62-.34-1.35-.95-1.59-1.63-.2-.55,0-.45.17-.86.07-.18.09-.36.13-.55.19.09.92.23,1.05.07.18-.23-.24-.8-.31-1.04.13-.1.3-.17.42-.29.15-.15.25-.48.48-.48h.81Z"/>
      <path class="cls-6" d="M34.35,25.45c-.02-.06-.04-.26,0-.3.04-.04.89,0,1,.07.05.03.29.39.41.5.11.1.23.13.32.24-.14.19-.51.83-.32,1.02.14.14.86-.01,1.07-.09-.11.44.39.78.35,1.15-.07.65-.83,1.36-1.35,1.7-.11.07-.82.47-.89.46-.02,0-.18-.28-.16-.31.42-.13.89-.35,1.23-.62.1-.08.34-.25.27-.38-.27.02-1.53.79-1.67.69-.02-.01-.08-.44-.22-.3-.05.05.07.4.04.43-.82.25-1.65.48-2.51.6-.69.1-1.51.18-2.21.19-.34,0-.79-.15-1.11.02-.05.03-.1,0-.08.09.92.36,2.04.36,3.02.23s2.01-.49,2.96-.82l.11.35c-2.47.86-5.23.95-7.74.19-.14-.04-1.04-.34-1.08-.4-.05-.08.1-.51-.02-.65-.13-.09-.29.43-.26.52-.22-.06-.39-.12-.39-.37v-.72c-.1-.02-.07.02-.1.05-.15.19-.17.45-.23.68-.1-.1-.34-.17-.43-.26-.16-.17-.04-1.13-.03-1.39-.11-.13-.32.59-.33.64-.04.14-.06.29-.06.44-.05.06-.93-.62-1.02-.7-.56-.46-1.23-1.13-1.49-1.82-.06-.16-.25-.71-.03-.79.28-.1.86.52,1.09.68,2.01,1.45,4.48,2.37,6.95,1.53.18.12.8.9,1,.87.08-.01.05-.05.02-.11-.07-.12-.67-.84-.59-.94.07-.02.32-.16.35-.16.05,0,.37.4.54.34.05-.04-.28-.36-.26-.45,0-.03.51-.33.54-.33.12,0,.7.73.28-.21l1.47-1.03c.13-.03.24.18.31.24l-1.13.89c.07.15.67-.01.82-.05,1.09-.29,1.26-1.03,2.07-1.46.08-.04.54-.13.32-.21-.28-.1-.58,0-.85.05ZM28.11,30.33c-.18.06-.03.44.19.28.11-.08.05-.36-.19-.28Z"/>
      <path class="cls-6" d="M34.22,25.54c-.15,0-.7.47-.87.57-.03-.05-.24-.22-.21-.32.01-.06.75-.51.85-.5.11,0,.18.18.24.26Z"/>
      <path class="cls-6" d="M40.57,24.1c.06.06-.24.66-.29.77-.03.06.03.12-.1.1-.02-.32,0-.82.39-.87Z"/>
      <path class="cls-6" d="M39.66,24.97c-.11-.06-.43-.84-.39-.87.41.01.41.56.39.87Z"/>
      <path class="cls-1" d="M28.11,30.33c.25-.08.3.2.19.28-.23.16-.38-.22-.19-.28Z"/>
    </g>
    <rect class="cls-6" x="9.11" y="50.99" width="61.38" height="1.73"/>
  </g>
</svg>