<?xml version="1.0" encoding="UTF-8"?>
<svg id="Layer_1" data-name="Layer 1" xmlns="http://www.w3.org/2000/svg" viewBox="0 0 80 80">
  <defs>
    <style>
      .cls-1 {
        fill: #231f20;
      }

      .cls-2 {
        fill: #a0886b;
      }
    </style>
  </defs>
  <circle class="cls-1" cx="39.82" cy="39.73" r="38.87"/>
  <g>
    <path class="cls-2" d="M39.27,48.77c-1.08,0-1.95.87-1.95,1.95s.87,1.95,1.95,1.95,1.95-.87,1.95-1.95-.87-1.95-1.95-1.95ZM39.27,51.56c-.46,0-.84-.38-.84-.84s.38-.84.84-.84.84.38.84.84-.38.84-.84.84Z"/>
    <path class="cls-2" d="M47.92,50.17c-.67-.71-1.4-.85-2.05-.81-.73.04-1.23.4-1.58.8-.49.54-.49,1.21-.47,1.43.09,1.17.91,1.72.91,1.72.36.3.77.13.92,0,.32-.28.36-.82,0-1.1-.25-.2-.45-.44-.47-.89-.02-.4.35-.72.43-.76.53-.32,1.11-.17,1.61.54.5.72.66,2.01-.43,2.88-.52.41-.97.49-1.5.46-.73-.04-1.35-.54-1.6-.99-.41-.74-.7-1.14-1.28-1.15-.58-.01-1.12,1-1.12,1-.73,1.12-1.67,1.15-1.96,1.15-.29,0-1.23-.03-1.96-1.15,0,0-.54-1.01-1.12-1-.58.01-.93.41-1.34,1.15-.25.45-.86.94-1.6.99-.53.03-.98-.05-1.5-.46-1.09-.87-.93-2.16-.43-2.88.49-.71,1.08-.87,1.61-.54.08.05.45.36.43.76-.02.45-.22.69-.47.89-.36.28-.32.82,0,1.1.15.13.56.31.92,0,0,0,.82-.55.91-1.72.02-.21.02-.89-.47-1.43-.36-.39-.85-.76-1.58-.8-.66-.04-1.38.11-2.05.81-.55.57-.86,1.41-.88,2.08-.04,1.07.41,2.17,1.63,2.9.97.58,2.08.47,2.93.09.68-.3,1.26-1.11,1.26-1.11,0,0,.19-.35.58-.34.25,0,.4.2.5.34.3.42,1.13,1.4,2.65,1.42,1.52-.02,2.3-1.01,2.61-1.43.1-.14.25-.33.55-.33.33,0,.51.36.51.36,0,0,.29.59,1.33,1.12.6.31,1.9.45,2.86-.13,1.22-.73,1.66-1.83,1.63-2.9-.02-.68-.34-1.51-.88-2.08Z"/>
    <path class="cls-2" d="M52.66,25.72h-6.82v18.64h-2.66v-18.64h-2.66v13.3l-2.66-2.63v-10.66h-2.66v18.61h-7.98v-2.66h5.32v-2.66h-5.32v-10.64h2.66v7.98h2.66v-10.64h-6.82c-.64,0-1.16.52-1.16,1.16v18.44c0,.92.75,1.67,1.67,1.67h11.62v-6.89l2.66,2.69v4.2h6.82c.64,0,1.16-.52,1.16-1.16v-4.16h2.66v5.32h2.66v-20.12c0-.64-.52-1.16-1.16-1.16ZM51.16,39.01h-2.66v-10.64h2.66v10.64Z"/>
    <circle class="cls-2" cx="18.97" cy="40" r="1.85"/>
    <circle class="cls-2" cx="60.01" cy="40" r="1.85"/>
    <g>
      <path class="cls-2" d="M21.13,45.03l.07.76-2.79.27.1,1.05-.77.08-.18-1.81,3.56-.35Z"/>
      <path class="cls-2" d="M21.72,48.58l.17.57-3.01,2.42-.22-.74.59-.48-.39-1.31-.75-.07-.22-.74,3.84.34ZM20.69,49.21l-1.13-.1.24.81.89-.71Z"/>
      <path class="cls-2" d="M22.35,50.51l1.1,2.14-.68.35-.37-.73-2.51,1.29-.35-.69,2.51-1.29-.37-.72.68-.35Z"/>
      <path class="cls-2" d="M23.77,53.09l.44.63-2.95,2.03-.44-.63,2.95-2.03Z"/>
      <path class="cls-2" d="M26.24,56.06l.52.54-2.58,2.48-.52-.54.53-2.78-1.67,1.61-.53-.55,2.58-2.48.53.55-.52,2.78,1.66-1.6Z"/>
      <path class="cls-2" d="M28.64,57.94l1.76.98-.34.6-1.09-.61-.36.64,1.09.61-.34.61-1.08-.61-.71,1.27-.67-.38,1.75-3.12Z"/>
      <path class="cls-2" d="M30.98,59.49l.72.24-.68,2.08c-.06.19-.06.37,0,.52s.19.26.36.31c.2.07.37.06.52-.02.15-.08.26-.23.33-.45l.67-2.04.72.24-.72,2.2c-.06.19-.18.38-.35.55-.17.18-.37.28-.62.33-.24.04-.49.02-.75-.06-.47-.15-.76-.39-.89-.72s-.15-.64-.05-.93l.73-2.24Z"/>
      <path class="cls-2" d="M36.21,61.23l-.54.46c-.23-.18-.4-.27-.51-.29-.08-.01-.16.01-.23.07s-.11.13-.12.22c-.02.17.12.35.42.51.22.13.38.24.49.33s.19.22.26.37c.06.15.08.31.06.48-.04.3-.19.55-.47.75-.27.2-.58.27-.91.23-.37-.05-.71-.26-1.02-.65l.57-.52c.2.26.39.4.59.43.09.01.19-.02.28-.09.09-.07.15-.15.16-.24.02-.19-.15-.37-.53-.56-.21-.11-.36-.21-.45-.29-.08-.08-.15-.2-.2-.34s-.06-.29-.04-.43c.04-.32.17-.56.4-.73.23-.17.51-.24.84-.2.39.05.71.21.94.49Z"/>
      <path class="cls-2" d="M37.09,61.26h.77s-.02,3.58-.02,3.58h-.77s.02-3.58.02-3.58Z"/>
      <path class="cls-2" d="M38.64,63.05c0-.53.17-.97.52-1.31s.76-.52,1.24-.52c.53,0,.97.17,1.31.52s.52.78.52,1.31-.17.96-.51,1.31-.77.52-1.3.52-.95-.17-1.29-.52-.51-.78-.51-1.32ZM40.44,61.94c-.3,0-.54.1-.72.31-.18.21-.28.49-.28.82,0,.32.09.58.28.79.19.21.42.31.71.31.3,0,.54-.1.73-.31.18-.21.28-.48.28-.82s-.09-.6-.27-.8c-.18-.2-.42-.31-.72-.31Z"/>
      <path class="cls-2" d="M45.23,60.66l.75-.12.55,3.54-.74.12-1.97-2.04.36,2.29-.76.12-.56-3.54.75-.12,1.98,2.02-.36-2.27Z"/>
      <path class="cls-2" d="M50.59,58.21l.4.78c-.45-.03-.8.02-1.06.15-.26.13-.42.33-.48.58-.06.26-.02.54.14.84.15.28.34.47.59.56s.51.06.79-.08c.24-.12.48-.37.71-.73l.4.77c-.31.32-.59.54-.84.67-.43.22-.87.25-1.33.09-.46-.16-.81-.47-1.04-.92-.24-.46-.28-.93-.14-1.4.14-.48.43-.82.86-1.05.28-.14.62-.23,1.01-.25Z"/>
      <path class="cls-2" d="M50.97,57.73l.59-.48,1.38,1.7c.13.16.27.25.44.28.16.03.32-.02.46-.14.16-.13.25-.28.26-.45.01-.17-.05-.34-.2-.52l-1.35-1.67.59-.48,1.46,1.8c.13.16.22.36.28.59.06.24.04.47-.06.7s-.25.43-.46.6c-.38.31-.75.43-1.09.36-.35-.07-.62-.22-.81-.46l-1.48-1.83Z"/>
      <path class="cls-2" d="M53.64,55.4l.52-.57,2.65,2.4-.52.57-2.65-2.4Z"/>
      <path class="cls-2" d="M56.08,52.77l.16.69c-.27.12-.43.23-.49.32-.05.07-.06.15-.05.24s.06.16.14.21c.14.1.36.06.65-.13.22-.14.39-.23.53-.28.13-.05.28-.07.45-.06s.31.07.45.17c.25.17.4.43.45.76s-.03.64-.22.92c-.21.3-.56.51-1.06.6l-.2-.75c.32-.05.54-.16.65-.32.05-.08.07-.17.05-.29-.02-.12-.07-.2-.14-.25-.15-.11-.4-.04-.74.2-.2.14-.35.23-.46.26s-.24.04-.39.02-.28-.08-.4-.16c-.26-.18-.41-.41-.46-.7-.04-.28.03-.56.22-.84.23-.33.52-.53.87-.61Z"/>
      <path class="cls-2" d="M56.13,51.99l.35-.68,3.18,1.64-.35.68-3.18-1.64Z"/>
      <path class="cls-2" d="M57.58,48.41l.23-.72,3.41,1.1-.23.71-2.71.85,2.21.71-.24.73-3.41-1.1.23-.73,2.69-.86-2.19-.7Z"/>
      <path class="cls-2" d="M57.9,46.98l.22-2,.7.08-.14,1.23.72.08.13-1.23.69.08-.13,1.23.74.08.13-1.23.7.08-.22,2-3.56-.39Z"/>
    </g>
    <path class="cls-2" d="M27.91,21.58h0c2.29-2.9,6.49-4.85,11.3-4.85s8.94,1.91,11.24,4.77c.37.46.81.86,1.36,1.09.93.38,2,.43,2.67.42-2.04-4.89-8.1-8.44-15.27-8.44s-13.24,3.55-15.27,8.44c1.07.02,3.05-.14,3.97-1.43"/>
    <path class="cls-2" d="M47.79,22.28h0c-2.4-2.08-5.15-3.04-8.58-3.04s-6.25,1.14-8.6,3.04h17.18Z"/>
  </g>
</svg>