<?xml version="1.0" encoding="UTF-8"?>
<svg id="Layer_1" data-name="Layer 1" xmlns="http://www.w3.org/2000/svg" viewBox="0 0 80 80">
  <defs>
    <style>
      .cls-1 {
        fill: #231f20;
      }

      .cls-2 {
        fill: #fff;
      }
    </style>
  </defs>
  <circle class="cls-1" cx="39.82" cy="39.73" r="38.87"/>
  <g>
    <g>
      <polygon class="cls-2" points="25.19 57.28 23.78 57.28 23.78 54.41 22.48 54.41 22.48 58.45 25.19 58.45 25.19 57.28"/>
      <path class="cls-2" d="M29.87,54.41h-1.42l-1.24,4.04h1.36l.25-.91h.64l.27.91h1.39l-1.25-4.04ZM29.13,56.24l.06.21h-.12l.06-.21Z"/>
      <polygon class="cls-2" points="32.66 55.58 33.61 55.58 33.61 58.45 34.92 58.45 34.92 55.58 35.88 55.58 35.88 54.41 32.66 54.41 32.66 55.58"/>
      <rect class="cls-2" x="38.17" y="54.41" width="1.3" height="4.04"/>
      <path class="cls-2" d="M45.47,54.41h-1.24v1.28c0,.08,0,.17,0,.24-.02-.04-.04-.07-.06-.1l-.81-1.42h-1.33v4.04h1.23v-1.32c0-.14,0-.29,0-.42.05.09.1.18.13.24l.83,1.49h1.24v-4.04Z"/>
      <path class="cls-2" d="M49.83,54.35c-1.16,0-1.97.86-1.97,2.1s.79,2.05,1.91,2.05c1.19,0,1.99-.85,1.99-2.11s-.79-2.04-1.93-2.04ZM49.82,57.37c-.45,0-.61-.5-.61-.93s.16-.95.61-.95c.42,0,.61.47.61.93s-.16.95-.6.95Z"/>
      <path class="cls-2" d="M55.32,57.35c-.37,0-.68-.15-.77-.19l-.28-.14-.28,1.15.17.09c.22.12.66.25,1.12.25,1.24,0,1.68-.73,1.68-1.35s-.35-1.02-1.08-1.29c-.31-.12-.5-.2-.5-.27,0-.04.08-.09.26-.09.22,0,.43.05.63.14l.27.13.31-1.14-.19-.09c-.29-.13-.63-.2-1.01-.2-.94,0-1.59.54-1.59,1.32,0,.59.38,1.02,1.14,1.28.43.15.43.23.43.26,0,.12-.24.13-.31.13Z"/>
      <path class="cls-2" d="M26.02,59.56c-.46-.35-1.05-.51-1.9-.51-.5,0-.97.03-1.34.09l-.21.03v4.62l.22.03c.33.04.71.06,1.13.06.93,0,1.64-.21,2.13-.61.36-.31.8-.89.8-1.92,0-.78-.28-1.41-.82-1.81ZM25.32,61.4c0,.42-.11.74-.32.95-.2.2-.49.29-.86.29h-.1v-2.34c.05,0,.11,0,.19,0,.35,0,.63.1.82.28.18.19.28.46.27.82Z"/>
      <polygon class="cls-2" points="32.24 62.05 33.81 62.05 33.81 60.77 32.24 60.77 32.24 60.38 33.9 60.38 33.9 59.09 30.77 59.09 30.77 63.86 33.99 63.86 33.99 62.56 32.24 62.56 32.24 62.05"/>
      <path class="cls-2" d="M39.5,59.06c-.53,0-.99.03-1.35.09l-.21.04v4.67h1.46v-1.51s.05,0,.08,0c.66,0,1.2-.18,1.56-.52.3-.29.47-.71.47-1.19s-.2-.91-.55-1.18c-.33-.27-.81-.4-1.46-.4ZM40.05,60.66c0,.41-.41.46-.65.45v-.82s.09,0,.15,0c.5,0,.5.28.5.38Z"/>
      <path class="cls-2" d="M47.55,59.02c-1.37,0-2.33,1.02-2.33,2.49s.93,2.42,2.26,2.42c1.43,0,2.35-.98,2.35-2.5,0-1.42-.94-2.41-2.28-2.41ZM47.53,62.66c-.58,0-.79-.63-.79-1.17s.21-1.2.78-1.2c.54,0,.78.59.78,1.17,0,.55-.2,1.2-.78,1.2Z"/>
      <polygon class="cls-2" points="53.25 59.09 53.25 60.4 54.4 60.4 54.4 63.86 55.87 63.86 55.87 60.4 57.03 60.4 57.03 59.09 53.25 59.09"/>
    </g>
    <g>
      <path class="cls-2" d="M51.4,16.16l-1.15,3.98c-2.44-.09-16.53,6.38-16.82,7.69-.39,1.74,2.28,3.09,3.65,2.72.42-.11,4.37-3.65,5.72-4.39,2.06-1.13,4.26-1.71,6.42-2.55-.46,3.51-.69,7.13-1.44,10.6-.16.72-3.05,11.45-4.68,9.54-.45-4.47.7-8.5,1.34-12.85-2.73-1.99-4.15-.59-4.89,2.31-.52.37-2.96-.93-4.03-.76-4.18.65-6.88,13.91-5.35,17,.55,1.12,3.5,1.63,4.61,1.09,1.17-.58,3.6-6.95,3.94-8.54l1.11,4.79c4.62,3.58,5.45-2,8.08-4.36-.14,3.35.22,6.69,2.63,9.19h-19.92c-.19,0-2.33-2.27-2.6-2.66-3.81-5.59-2.1-18.99-.48-25.38.61-2.39,1.86-5.6,3.52-7.43h20.36Z"/>
      <path class="cls-2" d="M59.72,22.29v29.33c-2.43-.24-5.12.98-6.47-1.63-2.5-4.85-1.38-19.3.02-24.73,1.11-4.34,2.57-2.74,6.45-2.97Z"/>
      <path class="cls-2" d="M19.45,16.16h5.25c-2.42,8.48-4.28,18.05-3.52,26.94.3,3.43,1.52,6.14,3.96,8.52h-5.69s0-35.46,0-35.46Z"/>
      <path class="cls-2" d="M34.33,45.93c-.89-.22-.7-.64-.69-1.3.04-1.41,1.8-10.05,3.53-9.64.41.1,1.05,1.36,1,1.9-.21,2.42-3.29,6.48-3.84,9.05Z"/>
      <path class="cls-2" d="M59.72,16.16v2.63s-3.94,0-3.94,0c.25-2.3,1.81-2.96,3.94-2.63Z"/>
    </g>
  </g>
</svg>