<?xml version="1.0" encoding="UTF-8"?>
<svg id="Layer_1" data-name="Layer 1" xmlns="http://www.w3.org/2000/svg" viewBox="0 0 74 29">
  <defs>
    <style>
      .cls-1 {
        fill: #231f20;
        stroke: #231f20;
        stroke-miterlimit: 10;
        stroke-width: .25px;
      }

      .cls-2 {
        fill: #70be44;
      }
    </style>
  </defs>
  <path class="cls-2" d="M.55,10.16c.02.35.05.71.08,1.06.03.36.08.72.13,1.08.07.47.12.93.16,1.39.04.46.08.94.12,1.43.04.51.08,1.03.13,1.55.05.54.14,1.09.26,1.63.04.19.1.38.18.56.04.1.09.2.14.3,0,.02.01.03.02.05.08.16.19.29.32.41.09.08.19.14.3.2.02,0,.04.02.06.03.19.08.38.14.57.19.17.04.35.06.53.06.08,0,.16,0,.24-.01,0,0,0,0,0,0,.13-.01.26-.03.38-.04.17-.02.34-.05.51-.1.38-.09.74-.23,1.07-.41.28-.15.55-.32.81-.5,0,0,0,0,0,0,.3-.21.6-.42.89-.63.04-.03.08-.06.12-.09,0,0,0,.01,0,.02.04.19.11.37.2.55.12.25.28.48.47.68.28.3.67.49,1.11.55.01,0,.02,0,.03,0,.06,0,.12,0,.18,0,.37,0,.71-.13.97-.37.23-.21.39-.48.48-.82.03-.12.05-.25.05-.4.26.15.55.25.87.27.09,0,.19.01.28.01.49,0,.96-.11,1.4-.34.33-.16.62-.36.87-.6.2-.19.39-.4.57-.62,0-.01.02-.02.03-.03.07-.09.14-.18.2-.28.08-.12.17-.24.24-.37.01-.02.03-.05.04-.07.03.15.06.31.1.46,0,0,0,0,0,0,.09.39.2.77.32,1.14.14.43.35.85.62,1.24.02.02.03.04.05.06.15.18.32.32.5.43.14.08.29.14.43.18.16.05.32.08.49.08.05,0,.09,0,.14,0,.06,0,.12-.02.19-.03.11-.03.21-.06.32-.1.02,0,.04-.02.07-.03.07-.03.14-.07.22-.1.18-.08.34-.2.48-.34.14-.14.24-.27.32-.41.04-.08.09-.17.12-.29.04.04.07.08.11.11.17.18.36.34.57.49,0,0,.02.01.02.02.55.38,1.18.6,1.87.66.13.01.27.02.41.02.07,0,.14,0,.21,0,.28-.01.55-.07.82-.18,0,0,0,0,.01,0,.53-.22.97-.55,1.29-.96.3-.38.52-.83.66-1.34.12-.38.19-.76.23-1.15.04-.37.05-.75.03-1.14,0,0,0,0,0-.01-.04-.8-.26-1.56-.63-2.26-.12-.23-.26-.47-.4-.69-.1-.15-.2-.3-.31-.45.08.03.17.05.26.07.08.02.16.02.24.02.26,0,.5-.08.7-.23.12-.09.23-.21.32-.34.27-.39.33-.87.14-1.3,0,0,0-.02-.01-.02-.03-.06-.05-.12-.07-.17-.03-.09-.07-.18-.11-.27,0,0,0-.01,0-.01-.05-.12-.11-.23-.16-.34-.08-.18-.18-.35-.3-.52-.25-.34-.52-.66-.81-.94,0,0,0,0-.01-.01-.19-.18-.41-.34-.66-.46-.25-.13-.51-.22-.78-.28-.18-.04-.37-.06-.56-.06-.12,0-.24,0-.36.02-.33.04-.65.16-.94.33,0,0,0,0-.01,0l-.11.07-.06.04-.03.02-.14.09s-.03.02-.04.03c-.28.19-.52.43-.72.7-.19.26-.35.55-.45.85-.11.3-.17.61-.19.93-.02.32,0,.64.08.96,0,0,0,.01,0,.02.09.35.21.69.37,1.01.14.28.29.56.45.83.14.23.28.46.44.67.13.19.27.37.41.57.09.14.18.29.26.44.06.11.11.24.15.38,0,0,0,.02,0,.02.07.23.09.45.09.66,0,.08-.01.17-.02.25,0-.02-.02-.04-.02-.06-.05-.16-.08-.32-.11-.48,0,0,0,0,0,0-.08-.42-.25-.79-.51-1.09-.17-.2-.35-.39-.55-.57-.2-.18-.46-.28-.72-.28-.09,0-.17.01-.26.03-.35.09-.63.34-.75.68-.05.14-.1.27-.15.38,0,.02-.01.04-.02.05-.06-.3-.11-.59-.16-.89-.08-.47-.14-.96-.18-1.46-.03-.38-.04-.75-.03-1.12.01-.4.03-.8.05-1.21.01-.17.03-.34.04-.5.02-.25,0-.5-.05-.75-.04-.27-.15-.53-.32-.79-.27-.39-.68-.63-1.16-.68-.07,0-.14-.01-.2-.01-.22,0-.43.05-.62.14-.33.16-.58.44-.69.8-.05.13-.09.26-.13.39-.22.05-.43.11-.64.17-.39.12-.78.28-1.17.46-.4.19-.77.41-1.11.66-.32.24-.64.5-.94.79-.39.37-.73.79-1.02,1.23,0-.07,0-.14-.02-.2-.03-.31-.08-.63-.16-.95,0,0,0,0,0-.01-.03-.13-.07-.26-.1-.38-.05-.16-.12-.32-.2-.47.01-.01.03-.03.04-.04.23-.23.36-.54.36-.88,0-.03,0-.05,0-.08-.02-.25-.09-.5-.23-.76-.18-.34-.43-.59-.74-.72-.09-.04-.19-.08-.28-.12-.18-.07-.34-.1-.49-.1-.19,0-.37.05-.53.13-.2.1-.37.23-.51.39,0,0,0,0,0,0-.13.15-.23.32-.31.52-.1.27-.13.56-.07.87.03.15.07.29.12.41-.17.2-.3.43-.37.7-.05.21-.08.42-.09.62,0,.15-.01.3,0,.44,0,.09,0,.19,0,.29,0,.12-.01.24-.02.35,0,.1,0,.21-.01.33,0,.02,0,.04,0,.06,0,.2,0,.4,0,.59,0,.17,0,.34,0,.51,0,0,0,.01,0,.02,0,.37,0,.74.03,1.1.02.24.04.48.06.72-.04.01-.09.03-.13.04-.09.04-.19.07-.29.11-.02,0-.04.02-.06.03-.54.27-1.06.6-1.53.98-.02-.16-.03-.31-.04-.47,0-.26-.04-.51-.08-.76-.04-.21-.07-.41-.11-.62l-.03-.22-.03-.18-.03-.17-.03-.21c0-.08-.01-.16-.02-.25,0-.2-.04-.41-.09-.61-.04-.17-.07-.35-.09-.52-.02-.22-.05-.44-.07-.66,0,0,0,0,0,0,0-.03,0-.07,0-.09,0-.1,0-.2-.02-.31,0,0,0-.01,0-.02-.01-.1-.02-.22-.03-.33-.01-.12-.02-.25-.04-.37,0-.11,0-.22,0-.33,0-.21-.02-.42-.07-.63v-.6c0-.2,0-.41-.01-.61v-.16s-.02-.43-.02-.43c0-.2-.02-.41-.03-.61,0-.12-.02-.23-.03-.35-.01-.11-.02-.22-.04-.33-.02-.22-.05-.44-.1-.65-.04-.19-.09-.38-.15-.57,0,0,0-.01,0-.02-.12-.4-.34-.73-.65-1-.35-.3-.77-.46-1.23-.46-.02,0-.03,0-.05,0-.13,0-.26.02-.39.05-.41.09-.74.37-.9.77-.01.03-.02.06-.03.09-.04.13-.08.26-.12.39-.07.21-.12.42-.14.64-.03.27-.05.55-.07.82-.02.28-.02.58-.01.87.01.46.03.92.04,1.37.01.47.04.94.08,1.4Z"/>
  <path class="cls-2" d="M30.48,12.13c0,.4.03.81.07,1.2.04.38.08.76.13,1.15.04.38.09.75.13,1.1.04.35.08.7.12,1.06,0,0,0,0,0,0,.04.35.08.71.13,1.05.06.4.16.8.31,1.19.09.25.24.48.42.66l.07.07.16.16c.22.22.52.34.86.34.06,0,.11,0,.17-.01.1-.02.19-.03.29-.03.31-.02.6-.11.88-.28.23-.14.45-.31.63-.49.22-.22.4-.48.53-.78.05-.12.11-.24.16-.36.05-.1.1-.2.15-.3.2-.36.4-.73.6-1.09.2-.37.4-.75.59-1.12.22-.43.44-.88.65-1.33.2-.44.4-.88.6-1.33.06-.13.12-.27.17-.4-.05.32-.09.64-.1.97-.01.29-.02.59-.03.89,0,.33.01.66.05.99.04.43.12.85.23,1.25.11.42.27.83.47,1.23,0,0,0,.01.01.02.32.61.74,1.1,1.24,1.47.53.39,1.16.62,1.87.7.15.02.31.03.46.03.53,0,1.02-.11,1.47-.32.52-.25.99-.62,1.4-1.1.23-.26.44-.53.64-.8.17-.24.33-.49.47-.75.16.45.38.88.68,1.26,0,.01.02.03.03.04.14.16.28.32.43.47.17.18.36.34.57.49,0,0,.02.01.02.02.55.38,1.18.6,1.87.66.13.01.27.02.41.02.07,0,.14,0,.21,0,.28-.01.55-.07.82-.18,0,0,0,0,.01,0,.53-.22.97-.55,1.29-.96.17-.21.31-.45.43-.71,0,.03.01.06.02.08.04.19.11.37.2.55.12.25.28.48.47.68.28.3.67.49,1.11.55.01,0,.02,0,.03,0,.06,0,.12,0,.18,0,.05,0,.1,0,.15,0-.01.39,0,.79.04,1.18.04.39.13.77.24,1.12.13.38.32.75.56,1.1,0,0,0,0,0,0,.26.36.56.69.88.97.33.29.71.53,1.14.74,0,0,0,0,0,0,.45.21.91.34,1.38.4.12.01.25.02.38.02.37,0,.76-.06,1.14-.18.27-.08.53-.19.78-.32.22-.12.45-.26.66-.41,0,0,0,0,.01,0,.67-.48,1.23-1.06,1.68-1.73.18-.28.34-.57.47-.87.12-.28.23-.57.33-.86.08-.25.15-.45.2-.59.06-.17.11-.33.15-.48.04-.16.08-.34.1-.53.01-.1.03-.21.04-.34.08.12.17.23.27.34.22.24.51.39.83.41.07,0,.15,0,.23,0,.08,0,.16,0,.24,0,.17-.01.34-.05.5-.12.03-.01.07-.03.1-.05.13-.07.24-.15.33-.23.13-.11.23-.25.32-.42.1-.18.18-.38.23-.59.05-.15.08-.31.09-.47,0-.06.01-.13.02-.19,0,0,0,0,0-.01,0-.06.02-.13.04-.19.03-.13.06-.26.08-.39.04-.24.07-.49.08-.73,0-.14.03-.28.07-.41.05-.17.09-.34.13-.52.02-.09.04-.19.08-.28,0-.01,0-.03.01-.04.06-.2.12-.39.18-.58-.01.16-.02.32-.01.48,0,.14,0,.28,0,.42-.02.86.05,1.71.2,2.54,0,.08.02.16.04.24,0,.02,0,.03.01.05.03.19.11.38.23.54,0,0,0,0,0,0,.22.29.54.51.91.62.18.06.37.09.55.09.19,0,.39-.03.57-.1,0,0,0,0,0,0,.13-.05.25-.09.36-.15.06-.03.13-.06.2-.09.02,0,.04-.02.06-.03.18-.08.34-.18.48-.3.24-.21.4-.49.45-.8.06-.17.09-.35.08-.53,0-.11-.02-.22-.05-.32,0-.05-.02-.09-.03-.14-.01-.07-.03-.15-.04-.24-.03-.2-.06-.4-.06-.6-.01-.25-.02-.5-.04-.75-.02-.49-.02-.98,0-1.47.01-.5.04-1.01.07-1.5,0,0,0-.02,0-.02.01-.28.03-.57.06-.85.02-.3.05-.6.07-.9.03-.39.04-.78.03-1.16-.01-.41-.07-.82-.16-1.23,0,0,0-.02,0-.02-.03-.13-.08-.26-.13-.39-.07-.17-.16-.32-.28-.47-.06-.08-.13-.16-.2-.24-.23-.25-.55-.4-.89-.43-.03,0-.06,0-.09,0-.03,0-.07,0-.09,0-.07,0-.15-.02-.23-.02-.03,0-.06,0-.1,0-.47,0-.89.19-1.18.54-.03.03-.06.06-.09.09-.06.06-.13.13-.19.21,0,0,0,0,0,0-.07.09-.15.17-.23.26-.12.13-.24.28-.34.43-.12.18-.24.36-.35.53-.1.17-.2.34-.31.52-.12.21-.25.43-.37.65,0,0,0,0,0,.01,0-.01,0-.03,0-.04-.02-.22-.05-.44-.09-.66-.02-.14-.04-.28-.06-.41-.02-.11-.03-.22-.04-.34,0,0,0-.01,0-.02-.03-.21-.08-.41-.15-.6-.06-.16-.15-.31-.24-.47-.27-.42-.62-.58-.86-.64-.14-.03-.28-.05-.42-.05-.08,0-.15,0-.23.01-.42.04-.78.26-1.04.62-.1.14-.18.28-.24.43-.04-.12-.1-.23-.17-.33,0,0,0,0,0,0,0-.01-.02-.02-.02-.04-.01-.02-.03-.04-.04-.06-.26-.34-.64-.54-1.04-.56-.03,0-.07,0-.1,0-.11,0-.23,0-.34.02-.2.02-.48.07-.73.27-.35.27-.44.65-.46.78,0,0,0,.02,0,.03-.01.05-.02.11-.03.17-.15.03-.29.06-.43.1-.39.11-.79.24-1.17.4-.45.18-.87.42-1.25.71-.33.25-.66.53-.98.82-.35.33-.67.69-.93,1.07-.29.42-.51.88-.65,1.38-.06.18-.1.37-.12.56,0-.03,0-.05,0-.08,0-.14,0-.27,0-.4,0-.15,0-.31,0-.47,0,0,0,0,0-.01,0-.31,0-.62-.03-.93-.03-.31-.08-.63-.16-.95,0,0,0,0,0-.01-.03-.13-.07-.26-.1-.38-.05-.16-.12-.32-.2-.47.01-.01.03-.03.04-.04.23-.23.36-.54.36-.88,0-.03,0-.05,0-.08-.02-.25-.09-.5-.23-.76-.18-.34-.43-.59-.74-.72-.09-.04-.19-.08-.28-.12-.18-.07-.34-.1-.49-.1-.19,0-.37.05-.53.13-.2.1-.37.23-.51.39,0,0,0,0,0,0-.13.15-.23.32-.31.52-.05.12-.08.24-.09.37-.19-.24-.39-.46-.6-.66,0,0,0,0-.01-.01-.19-.18-.41-.34-.66-.46-.25-.13-.51-.22-.78-.28-.18-.04-.37-.06-.56-.06-.12,0-.24,0-.36.02-.33.04-.65.16-.94.33,0,0,0,0-.01,0l-.11.07-.06.04-.03.02-.14.09s-.03.02-.04.03c-.28.19-.52.43-.72.7-.19.26-.35.55-.45.85-.11.3-.17.61-.19.93-.02.32,0,.64.08.96,0,0,0,.01,0,.02.09.35.21.69.37,1.01.14.28.29.56.45.83.14.23.28.46.44.67.13.19.27.37.41.57.09.14.18.29.26.44.06.11.11.24.15.38,0,0,0,.02,0,.02.07.23.09.45.09.66,0,.08-.01.17-.02.25,0-.02-.02-.04-.02-.06-.05-.16-.08-.32-.11-.48,0,0,0,0,0,0-.08-.42-.25-.79-.51-1.09-.17-.2-.35-.39-.55-.57-.2-.18-.46-.28-.72-.28-.09,0-.17.01-.26.03-.14.04-.27.1-.38.18-.05-.05-.1-.09-.16-.13-.03-.02-.07-.05-.11-.07-.09-.05-.18-.09-.28-.12.33-.54.56-1.13.68-1.76,0,0,0,0,0,0,.07-.38.08-.76.03-1.12-.06-.39-.19-.77-.39-1.12-.16-.27-.34-.52-.53-.76-.23-.29-.51-.53-.82-.74-.02-.01-.04-.02-.06-.04-.04-.02-.08-.05-.12-.07-.04-.03-.08-.05-.11-.08,0,0-.01,0-.02-.01-.36-.26-.74-.42-1.15-.49-.24-.04-.49-.06-.74-.06-.08,0-.17,0-.25,0,0,0,0,0,0,0-.31.02-.62.08-.91.17-.27.09-.54.2-.8.33,0,0,0,0,0,0-.3.16-.58.34-.84.55-.26.21-.5.46-.72.73-.11.14-.22.29-.32.43.08-.3.16-.59.22-.89.09-.42.12-.86.11-1.29,0,0,0-.01,0-.02-.02-.3-.06-.59-.12-.88-.07-.35-.2-.69-.38-1.01,0,0-.01-.02-.02-.03-.3-.5-.69-.88-1.15-1.14-.35-.2-.74-.3-1.17-.3-.22,0-.45.03-.69.08,0,0-.01,0-.02,0-.51.13-.98.32-1.39.59-.38.23-.74.49-1.07.77-.09.08-.18.16-.27.24-.18-.18-.4-.32-.64-.41-.18-.06-.36-.1-.54-.1-.34,0-.67.11-.97.32-.25.18-.46.4-.62.65-.18.28-.28.6-.31.95-.02.17-.03.34-.03.51,0,.12,0,.24-.02.35-.04.35-.06.71-.07,1.06,0,.33-.01.66-.01,1,0,.43.01.85.04,1.25.02.37.04.76.06,1.15ZM34.45,10.09c.03-.1.07-.21.13-.31.24-.41.51-.81.8-1.18.27-.35.58-.67.93-.97.12-.1.25-.2.38-.29,0,.02,0,.04-.01.06-.04.16-.09.32-.13.49,0,0,0,.01,0,.02-.07.27-.15.53-.24.78-.11.28-.22.56-.35.85,0,0,0,.01,0,.02-.11.28-.23.55-.35.8-.13.28-.27.55-.41.83,0,0,0,0,0,.01-.12.25-.24.5-.35.74-.09.18-.17.37-.26.55-.01-.25-.03-.5-.04-.75-.01-.23-.02-.45-.03-.67,0-.25-.02-.51-.05-.76,0,0,0,0,0,0,0-.08,0-.15.01-.2ZM43.91,15.79c-.08.13-.18.26-.27.38-.07.09-.15.17-.23.25-.03,0-.06-.02-.09-.03-.06-.03-.12-.07-.18-.14-.02-.03-.05-.06-.07-.09.05-.02.1-.04.15-.05.24-.09.47-.2.7-.32ZM44.28,11.05s0,.02,0,.04c-.05.28-.13.55-.25.79-.11.22-.26.42-.46.6,0,0-.01.01-.02.02-.12.12-.25.23-.38.34-.13.11-.27.22-.42.33,0,0,0,0,0,0-.04.03-.08.06-.12.09.02-.15.04-.29.07-.44,0,0,0,0,0-.01.08-.42.21-.81.39-1.18.09-.18.2-.33.33-.48.11-.12.24-.22.4-.29.04-.02.1-.05.15-.05.01,0,.03,0,.05,0,.06.02.15.05.26.18,0,0,0,0,0,.01,0,.01,0,.03,0,.05ZM52.69,12.36c-.1-.15-.2-.3-.31-.45.08.03.17.05.26.07.06.01.11.02.17.02,0,.05,0,.1,0,.15,0,.02,0,.04,0,.06,0,.11,0,.22,0,.33-.04-.06-.07-.12-.11-.18ZM56.74,15.11c.22.39.5.71.83.96.35.26.76.44,1.22.52.02,0,.03,0,.05,0,.22.03.44.05.65.05.56,0,1.11-.11,1.62-.31.18-.08.36-.16.53-.25-.06.54-.12,1.07-.17,1.58,0,0,0,0,0,.01-.03.29-.04.41-.04.48,0,.07,0,.13,0,.19h0s0,.03-.01.09c0,.02-.02.1-.08.32,0,0,0,0,0,.01-.07.3-.16.61-.24.91-.07.25-.17.49-.29.72,0,0,0,.01,0,.02-.12.24-.26.43-.43.58-.16.14-.34.25-.57.32-.08.02-.15.04-.21.04-.04,0-.08,0-.11-.02-.08-.02-.14-.06-.2-.13-.08-.1-.13-.21-.16-.33,0,0,0-.01,0-.02-.01-.03-.01-.06-.01-.1,0-.14,0-.27.01-.4,0-.02,0-.04,0-.05,0-.2.01-.4.04-.59.01-.09.05-.19.1-.29.07-.12.12-.25.16-.41,0-.02,0-.04.01-.05.04-.21.03-.44-.04-.66-.02-.05-.04-.09-.06-.14-.09-.19-.23-.35-.4-.48-.12-.09-.26-.17-.4-.23-.14-.06-.28-.1-.42-.12-.09-.02-.19-.02-.28-.02-.08,0-.16,0-.23.02,0,0-.02,0-.03,0,0,0,0,0,0,0-.04,0-.08,0-.12,0-.22,0-.44.04-.65.12-.04.01-.07.03-.11.05,0-.03,0-.06-.01-.09v-.16c0-.09,0-.19-.01-.3l-.16-2.22c0-.09-.01-.19-.01-.28.05.22.14.44.26.66Z"/>
  <g>
    <path class="cls-1" d="M4.7,17.67c.13,0,.24-.01.34-.05.1-.04.2-.09.3-.14.16-.08.3-.16.44-.24.14-.08.27-.18.4-.3.43-.35.89-.65,1.38-.89.08-.04.17-.07.25-.1.08-.03.18-.05.28-.05.11,0,.2.03.25.09.05.06.06.14.03.24-.04.09-.07.17-.12.25-.04.07-.11.14-.19.2-.3.2-.59.41-.87.61-.28.2-.57.41-.87.61-.24.16-.49.31-.74.46-.25.14-.52.24-.81.31-.12.04-.24.06-.37.07-.12.01-.25.03-.38.04-.14.01-.28,0-.41-.03-.13-.03-.27-.08-.4-.13-.03-.01-.05-.03-.08-.05-.02-.02-.04-.05-.06-.07-.05-.11-.1-.22-.15-.33s-.08-.22-.11-.33c-.11-.51-.19-1.02-.24-1.52-.05-.5-.09-1.01-.13-1.52-.04-.49-.07-.97-.12-1.45s-.1-.96-.17-1.45c-.05-.34-.09-.68-.12-1.02-.03-.34-.06-.69-.08-1.03-.04-.45-.06-.9-.07-1.36-.01-.45-.03-.91-.04-1.37,0-.26,0-.52.01-.78.01-.26.04-.51.06-.77.01-.14.04-.28.09-.42.05-.14.09-.28.13-.42.03-.07.07-.11.14-.13.06-.01.12-.02.18-.02.22,0,.41.06.57.2.16.14.27.31.33.51.05.17.09.34.13.51.04.17.07.34.08.52.01.11.03.22.04.33.01.11.02.21.03.32.01.19.02.38.03.58s.01.39.02.59c0,.19.01.38.01.57v.7s0,.08.02.12c.04.14.05.28.05.42s0,.28.01.42c.01.12.03.24.04.37.01.13.02.25.04.37,0,.07.01.14.01.2s0,.13.01.2c.02.23.04.45.07.68.02.23.07.45.12.68.04.12.05.24.06.36,0,.12.01.24.03.36.02.13.04.27.06.4s.04.27.06.4c.04.2.07.41.11.62.04.21.06.42.06.63.01.3.04.59.08.87.04.28.07.57.1.86,0,.05.02.1.03.14.01.05.02.1.04.15Z"/>
    <path class="cls-1" d="M10.28,17.23c.02.18.04.36.05.52.01.14.02.28.03.4s0,.22-.01.26c-.04.13-.09.24-.17.31-.08.07-.18.1-.32.08-.2-.03-.37-.1-.48-.23-.12-.12-.21-.27-.29-.43-.06-.11-.1-.21-.12-.31-.02-.09-.04-.18-.06-.26-.02-.08-.04-.17-.05-.26-.04-.37-.07-.75-.11-1.11-.04-.37-.07-.74-.1-1.11-.03-.33-.05-.66-.08-.99-.02-.32-.03-.66-.03-1,0-.19,0-.38,0-.57,0-.19,0-.38,0-.57,0-.12.01-.24.02-.35,0-.12,0-.23.02-.36,0-.12,0-.24,0-.35,0-.11,0-.23,0-.35,0-.14.03-.28.06-.42.04-.17.14-.29.3-.38s.32-.08.47,0c.06.03.1.07.14.11.04.05.08.09.11.14.06.1.11.2.14.31.03.11.06.22.09.33.06.27.11.53.13.8.02.26.03.53.03.8,0,.18,0,.36,0,.54,0,.17,0,.35,0,.53h.01c.01.21.02.42.02.63s0,.42.02.63l.16,2.22c0,.08.01.15.01.22v.22ZM9.47,8.95s-.09.04-.15.04c-.06,0-.11,0-.16-.02-.05-.02-.1-.06-.15-.12-.05-.06-.08-.15-.1-.27-.02-.12-.02-.22.02-.3.03-.08.07-.15.12-.21.06-.06.13-.12.21-.16.02-.01.07,0,.14.02.07.03.15.06.23.1.08.04.16.12.23.24.07.13.1.24.11.34,0,.05-.02.09-.05.12s-.07.06-.13.09c-.05.03-.11.05-.16.07-.06.02-.11.03-.16.05Z"/>
    <path class="cls-1" d="M18.49,18.8c-.08,0-.16,0-.23-.03-.06-.01-.13-.04-.21-.08-.07-.04-.14-.1-.21-.18-.21-.3-.37-.62-.49-.96-.11-.34-.21-.69-.3-1.05-.05-.22-.09-.44-.13-.66-.04-.22-.06-.44-.08-.67-.04-.34-.07-.67-.11-1-.04-.33-.08-.66-.11-1,0-.09-.01-.18-.02-.28,0-.09-.01-.19-.03-.3-.06.08-.12.15-.16.22-.05.07-.08.14-.11.22-.13.34-.27.67-.44.99-.17.32-.33.64-.5.97-.08.13-.14.27-.2.41-.06.14-.12.27-.2.41-.06.1-.12.19-.18.28s-.13.17-.19.26c-.16.19-.32.37-.49.53-.17.17-.37.3-.59.41-.35.18-.73.26-1.12.22-.18-.01-.34-.07-.48-.17-.14-.1-.26-.22-.37-.37-.11-.15-.2-.31-.25-.48-.05-.17-.09-.35-.11-.53-.05-.34-.06-.68-.03-1.01.03-.34.08-.67.15-1.01.06-.25.12-.49.19-.73.07-.24.16-.47.28-.69.28-.53.64-1.01,1.08-1.43.27-.25.55-.49.84-.7.29-.21.6-.4.94-.56s.68-.3,1.02-.4c.34-.11.69-.19,1.05-.24.02,0,.04,0,.05-.01.01,0,.03-.01.04-.01.06-.18.11-.34.16-.5.05-.16.1-.32.16-.48.02-.08.07-.13.13-.16.07-.03.15-.04.25-.03.18.01.31.09.4.22s.14.26.15.38c.04.16.05.33.04.5-.01.17-.02.34-.04.5-.02.42-.04.83-.05,1.25-.01.41,0,.83.03,1.24.04.52.1,1.04.19,1.54.08.51.18,1.01.29,1.52.06.3.13.61.21.91.08.3.16.6.23.9.04.17.09.34.14.5.05.16.11.33.16.5,0,.03.02.08.03.15.01.1,0,.18-.03.24-.04.06-.09.13-.16.2-.06.06-.12.1-.19.13-.07.03-.13.06-.2.09-.08.03-.16.05-.23.07ZM13.41,16.2h.05s.07-.03.1-.04c.4-.23.7-.55.92-.96.06-.12.12-.24.17-.36.05-.12.11-.24.17-.36.12-.23.25-.45.39-.66.14-.21.25-.44.33-.69.07-.19.15-.38.24-.56s.18-.37.25-.55c.1-.24.2-.48.3-.72s.18-.48.25-.73c.02-.08.04-.16.05-.23.01-.08.01-.16-.01-.25-.08.01-.15.03-.22.06-.07.02-.13.05-.2.09-.25.13-.5.26-.75.4-.24.14-.48.3-.7.47-.18.14-.36.29-.52.44-.16.15-.29.33-.39.54-.04.09-.09.18-.13.27-.05.09-.09.18-.12.27-.06.15-.11.3-.16.45-.05.15-.1.31-.13.46-.04.13-.06.27-.07.41-.01.14-.03.28-.04.42-.03.23-.04.47-.04.7,0,.23.03.47.07.7.01.08.03.16.06.24.02.08.07.15.12.22Z"/>
    <path class="cls-1" d="M20.61,14.24c.17.16.32.31.46.48.14.16.23.36.27.59.04.2.08.4.14.6.06.19.14.38.26.56.08.11.16.2.24.28s.18.16.28.24c.08.06.18.1.28.12.1.02.2.02.3.02.08-.01.16-.04.21-.08.08-.08.16-.16.23-.25.07-.09.12-.2.16-.32.1-.33.16-.66.17-1,.01-.33-.03-.67-.13-1.01-.06-.21-.13-.41-.23-.6-.1-.19-.21-.37-.33-.55-.14-.2-.28-.39-.42-.58-.14-.19-.27-.39-.39-.59-.15-.25-.28-.5-.41-.75-.12-.25-.22-.52-.29-.81-.05-.21-.07-.43-.05-.65s.06-.43.13-.64c.07-.21.18-.4.31-.58.13-.18.29-.33.47-.46.06-.04.11-.07.17-.11.06-.04.11-.07.17-.11.16-.1.34-.16.52-.19.19-.02.37-.02.55.02.18.04.35.1.51.19.16.08.3.18.42.3.25.24.48.51.69.81.08.11.14.22.2.33.05.12.11.23.16.35.04.08.07.15.1.22.03.07.06.14.1.22.04.1.03.19-.04.29-.02.04-.05.06-.07.08-.03.02-.07.02-.12.01-.1,0-.15-.06-.16-.16-.01-.06-.03-.13-.04-.19s-.03-.12-.05-.18c-.09-.23-.21-.43-.35-.63-.14-.19-.31-.35-.52-.49-.08-.06-.18-.1-.29-.13-.11-.03-.21-.06-.31-.09-.06-.01-.13-.01-.19,0-.06.02-.12.05-.17.11-.13.16-.24.32-.33.49s-.13.36-.15.57c0,.1,0,.19.03.29.03.09.06.18.11.25.14.28.29.55.46.81.17.26.34.51.51.77.14.19.28.39.4.58.13.2.25.4.36.61.3.57.47,1.17.51,1.81.01.34,0,.67-.03.99-.03.32-.1.64-.2.96-.1.37-.26.7-.47.97-.22.27-.51.49-.87.64-.16.06-.31.1-.47.11-.16,0-.31,0-.48-.01-.5-.04-.95-.2-1.36-.48-.16-.11-.3-.24-.43-.37-.13-.13-.26-.27-.38-.41-.29-.37-.49-.79-.6-1.25-.05-.19-.07-.38-.05-.57.02-.19.05-.37.11-.56.05-.16.11-.31.17-.45.06-.14.12-.3.18-.46Z"/>
    <path class="cls-1" d="M33.67,7.26c.08-.13.16-.25.24-.35s.15-.22.23-.32c.23-.33.48-.62.77-.87.29-.25.6-.47.94-.68.32-.2.68-.36,1.08-.46.43-.1.8-.06,1.1.11.3.17.55.42.76.76.13.23.22.46.26.7.05.24.08.48.1.73.01.35-.01.7-.08,1.03-.07.34-.16.67-.25,1.01-.18.58-.38,1.15-.6,1.71-.22.56-.46,1.11-.7,1.66-.2.44-.4.88-.59,1.32-.2.43-.41.86-.63,1.29-.19.37-.38.74-.58,1.1-.19.36-.39.72-.6,1.09-.06.12-.12.24-.18.37s-.11.25-.17.38c-.08.18-.18.33-.31.46-.13.13-.27.24-.43.34-.13.08-.26.12-.39.13-.13,0-.26.02-.4.04-.05,0-.08-.01-.11-.03l-.23-.23c-.07-.07-.13-.17-.17-.28-.12-.32-.2-.64-.25-.97s-.09-.66-.13-1c-.04-.37-.08-.73-.12-1.09-.05-.36-.09-.72-.13-1.09-.05-.37-.09-.75-.13-1.12-.04-.37-.06-.75-.06-1.13-.01-.4-.03-.8-.06-1.19s-.04-.78-.04-1.19c0-.32,0-.65.01-.97,0-.32.03-.65.06-.97.01-.14.02-.29.03-.43s.01-.3.03-.44c.01-.18.06-.34.15-.48s.2-.25.34-.35c.18-.13.35-.16.52-.1.17.06.31.19.4.37.06.13.11.26.15.4.05.14.08.28.1.42.01.07.04.18.07.33ZM34.14,16c.07-.08.12-.16.16-.23.04-.08.07-.15.1-.22.03-.07.07-.14.1-.21.23-.4.46-.81.67-1.22.21-.41.42-.83.63-1.26.12-.24.23-.48.34-.72.11-.24.22-.48.34-.73.14-.28.28-.56.41-.84.13-.28.26-.57.38-.86.13-.3.25-.59.36-.88.11-.29.21-.59.29-.91.04-.16.08-.32.13-.48.04-.16.07-.32.08-.49.01-.16.01-.31-.01-.46s-.07-.3-.15-.44c-.06-.12-.12-.2-.19-.24-.07-.04-.17-.05-.31-.04-.04,0-.07.01-.1.02-.03,0-.06.01-.1.03-.25.07-.49.17-.7.31s-.42.29-.61.45c-.41.35-.77.72-1.09,1.13s-.61.84-.88,1.3c-.1.18-.17.36-.23.55-.05.19-.07.39-.05.6.02.23.04.47.04.7s.02.47.03.7c.03.51.06,1.01.08,1.52.03.5.06,1.01.11,1.51.02.2.04.41.05.63.01.21.03.42.04.64,0,.02,0,.05,0,.07,0,.03.02.05.05.07Z"/>
    <path class="cls-1" d="M46.82,14.5c-.13.3-.27.59-.41.88-.14.29-.28.58-.44.87-.14.28-.3.54-.48.79-.18.25-.37.49-.58.73-.31.37-.66.64-1.05.83-.39.19-.84.25-1.35.2-.53-.06-.98-.22-1.36-.5-.37-.28-.69-.65-.93-1.11-.17-.34-.3-.68-.4-1.03-.1-.35-.16-.71-.2-1.09-.04-.29-.05-.58-.05-.86,0-.28.01-.57.03-.86.01-.3.05-.59.1-.88.05-.29.12-.58.2-.87.12-.42.27-.83.44-1.23.17-.4.4-.77.68-1.11.17-.21.36-.4.56-.57.2-.17.43-.31.67-.44.2-.11.41-.19.63-.26.22-.07.44-.11.66-.12.25-.01.5,0,.75.04.25.04.48.14.71.31.06.04.11.08.17.12.06.04.12.08.19.11.22.14.41.31.57.51.16.2.31.41.44.64.13.23.22.47.25.72.04.25.03.52-.02.78-.17.88-.58,1.63-1.24,2.26-.19.18-.39.36-.58.54-.2.17-.41.33-.63.48-.31.2-.63.37-.97.5-.34.13-.69.2-1.08.21,0,0-.04,0-.1.02.05.3.12.59.22.86.1.27.24.52.43.74.16.18.34.32.55.41.2.09.42.14.66.16.1,0,.19-.01.26-.06s.15-.1.23-.15c.16-.14.31-.29.44-.46.13-.17.26-.34.37-.52.16-.25.31-.5.44-.75s.25-.52.36-.78c.06-.13.12-.23.2-.32s.18-.14.32-.16c.08,0,.16.03.22.06.05.04.09.08.12.14.03.06.02.14-.03.24ZM41.93,14.49c.09-.01.17-.02.25-.03s.15-.02.22-.04c.25-.06.48-.14.7-.25.22-.11.43-.24.63-.39.16-.12.32-.24.47-.37s.29-.25.43-.39c.3-.27.53-.57.7-.91s.29-.7.35-1.09c.04-.18.04-.34,0-.5-.04-.16-.11-.31-.23-.45-.23-.27-.49-.44-.8-.52-.31-.08-.62-.04-.94.11-.28.13-.51.31-.72.52-.2.22-.37.46-.5.73-.23.45-.39.94-.49,1.45-.06.28-.1.55-.12.83-.02.28-.03.55-.02.84,0,.08.02.15.03.23s.02.15.04.24Z"/>
    <path class="cls-1" d="M48.16,14.24c.17.16.32.31.46.48.14.16.23.36.27.59.04.2.08.4.14.6.06.19.14.38.26.56.08.11.16.2.24.28s.18.16.28.24c.08.06.18.1.28.12.1.02.2.02.3.02.08-.01.16-.04.21-.08.08-.08.16-.16.23-.25.07-.09.12-.2.16-.32.1-.33.16-.66.17-1,.01-.33-.03-.67-.13-1.01-.06-.21-.13-.41-.23-.6-.1-.19-.21-.37-.33-.55-.14-.2-.28-.39-.42-.58-.14-.19-.27-.39-.39-.59-.15-.25-.28-.5-.41-.75-.12-.25-.22-.52-.29-.81-.05-.21-.07-.43-.05-.65s.06-.43.13-.64c.07-.21.18-.4.31-.58.13-.18.29-.33.47-.46.06-.04.11-.07.17-.11.06-.04.11-.07.17-.11.16-.1.34-.16.52-.19.19-.02.37-.02.55.02.18.04.35.1.51.19.16.08.3.18.42.3.25.24.48.51.69.81.08.11.14.22.2.33.05.12.11.23.16.35.04.08.07.15.1.22.03.07.06.14.1.22.04.1.03.19-.04.29-.02.04-.05.06-.07.08-.03.02-.07.02-.12.01-.1,0-.15-.06-.16-.16-.01-.06-.03-.13-.04-.19s-.03-.12-.05-.18c-.09-.23-.21-.43-.35-.63-.14-.19-.31-.35-.52-.49-.08-.06-.18-.1-.29-.13-.11-.03-.21-.06-.31-.09-.06-.01-.13-.01-.19,0-.06.02-.12.05-.17.11-.13.16-.24.32-.33.49s-.13.36-.15.57c0,.1,0,.19.03.29.03.09.06.18.11.25.14.28.29.55.46.81.17.26.34.51.51.77.14.19.28.39.4.58.13.2.25.4.36.61.3.57.47,1.17.51,1.81.01.34,0,.67-.03.99-.03.32-.1.64-.2.96-.1.37-.26.7-.47.97-.22.27-.51.49-.87.64-.16.06-.31.1-.47.11-.16,0-.31,0-.48-.01-.5-.04-.95-.2-1.36-.48-.16-.11-.3-.24-.43-.37-.13-.13-.26-.27-.38-.41-.29-.37-.49-.79-.6-1.25-.05-.19-.07-.38-.05-.57.02-.19.05-.37.11-.56.05-.16.11-.31.17-.45.06-.14.12-.3.18-.46Z"/>
    <path class="cls-1" d="M55.96,17.23c.02.18.04.36.05.52.01.14.02.28.03.4s0,.22-.01.26c-.04.13-.09.24-.17.31-.08.07-.18.1-.32.08-.2-.03-.37-.1-.48-.23-.12-.12-.21-.27-.29-.43-.06-.11-.1-.21-.12-.31-.02-.09-.04-.18-.06-.26-.02-.08-.04-.17-.05-.26-.04-.37-.07-.75-.11-1.11-.04-.37-.07-.74-.1-1.11-.03-.33-.05-.66-.08-.99-.02-.32-.03-.66-.03-1,0-.19,0-.38,0-.57,0-.19,0-.38,0-.57,0-.12.01-.24.02-.35,0-.12,0-.23.02-.36,0-.12,0-.24,0-.35,0-.11,0-.23,0-.35,0-.14.03-.28.06-.42.04-.17.14-.29.3-.38s.32-.08.47,0c.06.03.1.07.14.11.04.05.08.09.11.14.06.1.11.2.14.31.03.11.06.22.09.33.06.27.11.53.13.8.02.26.03.53.03.8,0,.18,0,.36,0,.54,0,.17,0,.35,0,.53h.01c.01.21.02.42.02.63s0,.42.02.63l.16,2.22c0,.08.01.15.01.22v.22ZM55.14,8.95s-.09.04-.15.04c-.06,0-.11,0-.16-.02-.05-.02-.1-.06-.15-.12-.05-.06-.08-.15-.1-.27-.02-.12-.02-.22.02-.3.03-.08.07-.15.12-.21.06-.06.13-.12.21-.16.02-.01.07,0,.14.02.07.03.15.06.23.1.08.04.16.12.23.24.07.13.1.24.11.34,0,.05-.02.09-.05.12s-.07.06-.13.09c-.05.03-.11.05-.16.07-.06.02-.11.03-.16.05Z"/>
    <path class="cls-1" d="M63.25,13.2c-.06.08-.11.16-.17.23-.06.08-.11.16-.17.23-.25.32-.52.6-.82.85-.3.25-.64.45-1.02.6-.54.22-1.12.29-1.73.2-.3-.06-.56-.17-.78-.33-.22-.16-.4-.37-.55-.64-.13-.23-.19-.45-.19-.68,0-.23.04-.46.11-.68.11-.4.28-.76.51-1.08.23-.32.49-.63.78-.9.29-.27.59-.52.9-.75s.64-.42,1.01-.57c.35-.14.7-.26,1.05-.36.35-.1.72-.16,1.1-.2.01-.08.02-.16.03-.24s.01-.15.03-.23c.01-.07.03-.14.04-.21s.02-.14.04-.21c.02-.09.05-.15.08-.17.03-.02.1-.04.2-.05.09-.01.18-.02.28-.02.09,0,.17.05.24.14.01.02.03.04.05.07.02.02.03.05.04.08.04.18.07.35.11.53.04.18.08.35.11.53.06.27.11.54.16.81.05.27.1.55.13.82.11.73.17,1.46.19,2.19.02.73.03,1.47.03,2.21,0,.55,0,1.1-.03,1.64-.02.54-.05,1.09-.1,1.64-.02.27-.04.48-.06.63-.02.15-.05.29-.08.41-.03.12-.07.26-.12.4-.05.14-.12.34-.2.6-.08.26-.18.52-.29.76-.11.25-.24.48-.39.71-.37.57-.84,1.05-1.41,1.45-.18.13-.37.24-.56.34-.19.1-.39.18-.6.24-.37.12-.73.16-1.08.12-.35-.04-.7-.14-1.04-.3-.34-.16-.64-.36-.9-.58-.26-.23-.5-.49-.71-.78-.18-.26-.32-.53-.42-.82-.1-.29-.16-.59-.2-.91-.04-.38-.05-.76-.03-1.14.04-.52.2-.97.47-1.38.06-.09.14-.16.24-.2.11-.04.22-.06.34-.04.04,0,.07,0,.12,0,.04,0,.08,0,.12-.02.04,0,.1,0,.16,0s.13.03.19.05.11.05.16.09c.05.04.08.07.1.12.01.04.02.08.01.12-.01.06-.03.1-.04.12-.13.23-.22.46-.25.7-.03.24-.05.48-.05.73,0,.14-.01.28-.02.43,0,.14.02.29.06.43.07.25.19.49.35.7.2.25.45.41.74.5.3.08.61.07.94-.03.37-.12.7-.3.96-.55.27-.24.49-.54.67-.9.16-.3.28-.6.37-.92.09-.32.18-.64.25-.95.05-.19.08-.33.1-.41.01-.08.02-.15.03-.21,0-.06,0-.12.01-.2s.02-.22.04-.41c.06-.54.12-1.09.18-1.63.06-.54.11-1.09.17-1.64.01-.18.02-.35.03-.53,0-.18.02-.35.03-.53-.01,0-.02-.01-.03-.02,0,0-.01,0-.03-.02ZM59.68,13.71c0,.27.14.37.42.3.38-.1.73-.26,1.04-.47.31-.22.6-.46.86-.75.32-.36.58-.75.79-1.15.21-.41.39-.84.53-1.3.02-.05.03-.1.03-.15.01-.24-.08-.31-.29-.2-.19.1-.36.2-.5.32-.25.2-.49.41-.74.61-.25.2-.49.41-.74.61-.22.18-.42.39-.6.6s-.34.45-.48.7c-.18.3-.29.6-.33.88Z"/>
    <path class="cls-1" d="M67.95,14.97c.04-.14.08-.28.13-.43.04-.14.08-.29.12-.43.06-.24.12-.47.19-.7s.16-.46.25-.68c.1-.25.2-.5.31-.75.11-.25.22-.5.34-.75.11-.22.22-.43.33-.65.12-.21.23-.42.35-.63.1-.17.2-.34.3-.5.1-.16.2-.32.32-.49.07-.11.15-.21.24-.3.09-.1.17-.19.26-.29.05-.06.1-.11.14-.15.05-.05.09-.1.14-.15.09-.11.22-.17.37-.17.08,0,.15.01.22.02.07,0,.14.01.21.01.08,0,.15.04.2.09.05.05.1.11.14.16.06.07.1.14.13.22.03.08.06.16.08.24.08.35.12.69.13,1.03.01.34,0,.69-.03,1.04-.02.3-.04.59-.07.89-.02.3-.04.59-.06.89-.04.52-.06,1.03-.07,1.55-.01.52-.01,1.03.01,1.55.01.25.03.49.04.74s.04.49.08.74c.01.08.03.15.04.22s.02.14.04.21c.01.06.02.11.03.16s-.02.11-.06.16c0,0,0,.01,0,.01,0,0,0,0,0,.01.01.12-.01.21-.08.26-.07.06-.15.11-.24.15-.09.04-.18.07-.26.11-.08.04-.18.08-.28.11-.14.05-.29.05-.45,0-.16-.05-.28-.13-.38-.25-.02-.03-.03-.06-.04-.1,0-.04-.01-.07-.03-.11,0-.03-.01-.05-.01-.08s0-.05-.01-.08c-.15-.77-.21-1.55-.19-2.35,0-.16,0-.31,0-.46,0-.15,0-.31.02-.46.01-.25.03-.49.06-.74.02-.25.05-.49.07-.74.02-.2.04-.41.07-.61.02-.2.05-.41.09-.61.02-.16.05-.32.08-.49.03-.16.06-.32.09-.49.05-.3.1-.61.16-.91.06-.3.09-.61.11-.92,0-.04,0-.08,0-.13,0-.04,0-.09,0-.15-.22.16-.4.33-.53.53-.08.12-.15.24-.22.37-.07.12-.14.25-.21.37-.08.13-.16.27-.24.4-.08.13-.16.27-.24.4-.08.15-.16.3-.22.44-.1.21-.2.42-.29.63-.1.21-.19.42-.29.63-.04.1-.08.2-.12.31-.04.11-.07.22-.11.32-.09.28-.18.55-.27.83-.09.28-.17.55-.26.83-.05.14-.09.28-.12.43-.03.14-.06.29-.11.43-.06.2-.09.42-.11.63-.01.22-.04.43-.07.64-.01.1-.03.2-.06.3-.02.1-.04.2-.06.3-.01.09-.02.18-.03.27,0,.09-.02.17-.05.26-.04.14-.08.27-.15.38-.03.06-.06.1-.09.13-.03.03-.08.06-.14.1-.05.02-.1.03-.15.04-.05,0-.11,0-.16,0s-.11,0-.15,0c-.05,0-.09-.03-.12-.07-.16-.16-.27-.34-.35-.53-.11-.28-.2-.57-.25-.85-.06-.29-.1-.58-.14-.87-.04-.34-.07-.68-.12-1.02-.04-.34-.07-.68-.1-1.02-.02-.4-.03-.81-.04-1.21,0-.41,0-.81,0-1.22,0-.32,0-.64.03-.95.02-.32.03-.64.05-.96.02-.4.05-.82.1-1.25.01-.12.04-.24.07-.36.04-.12.09-.23.17-.34.08-.11.17-.17.29-.18.1-.01.19-.01.28.01.08.02.16.08.22.18s.11.2.15.29c.04.1.07.2.08.32.01.14.03.28.05.41.02.13.04.27.06.41.04.2.06.39.08.58.02.19.03.39.04.59.01.3.03.59.05.88.02.29.03.58.05.88.01.32.03.63.04.95s.03.63.04.95c0,.1.01.2.02.29,0,.1.02.19.03.29h.05Z"/>
  </g>
</svg>