<?xml version="1.0" encoding="UTF-8"?>
<svg id="Layer_1" data-name="Layer 1" xmlns="http://www.w3.org/2000/svg" viewBox="0 0 364 153">
  <defs>
    <style>
      .cls-1 {
        fill: #231f20;
        stroke: #231f20;
        stroke-miterlimit: 10;
        stroke-width: .25px;
      }

      .cls-2 {
        fill: #70be44;
      }
    </style>
  </defs>
  <path class="cls-2" d="M3.56,54.79c.11,1.72.24,3.46.4,5.18.16,1.76.38,3.54.63,5.28.33,2.29.6,4.57.8,6.8.2,2.25.39,4.61.56,7.01.17,2.51.39,5.07.63,7.58.26,2.64.69,5.34,1.28,8,.19.95.49,1.88.9,2.76.22.47.45.98.67,1.49.03.08.07.16.11.23.38.77.91,1.44,1.57,2.01.43.37.93.7,1.45.96.1.05.2.09.3.14.92.39,1.86.7,2.8.92.85.2,1.72.3,2.59.3.38,0,.77-.02,1.16-.06.02,0,.03,0,.05,0,.63-.07,1.26-.14,1.87-.21.83-.09,1.67-.26,2.49-.49,1.86-.42,3.62-1.1,5.24-2.02,1.35-.76,2.69-1.59,3.97-2.46.01,0,.03-.02.04-.03,1.48-1.02,2.95-2.06,4.36-3.08.19-.14.4-.29.6-.43,0,.03.02.06.02.1.2.91.54,1.82,1,2.72.61,1.24,1.38,2.36,2.29,3.33,1.39,1.47,3.27,2.41,5.45,2.71.05,0,.11.01.16.02.29.03.58.05.86.05,1.82,0,3.46-.62,4.75-1.79,1.13-1.02,1.92-2.37,2.36-4,.16-.59.24-1.21.25-1.96,1.27.75,2.7,1.2,4.25,1.33.46.04.92.06,1.37.06,2.4,0,4.72-.56,6.89-1.67,1.6-.76,3.03-1.75,4.25-2.95.96-.94,1.9-1.97,2.78-3.05.04-.05.09-.11.13-.17.33-.44.66-.89,1-1.35.41-.57.81-1.19,1.18-1.83.07-.11.13-.23.2-.34.14.76.3,1.52.47,2.28,0,.02,0,.03.01.05.45,1.91.98,3.79,1.58,5.6.71,2.13,1.74,4.17,3.06,6.06.08.11.15.21.24.31.72.88,1.55,1.59,2.47,2.11.7.4,1.42.7,2.13.89.78.25,1.58.37,2.39.37.23,0,.46-.01.69-.03.31-.03.61-.08.91-.16.52-.14,1.04-.31,1.56-.49.11-.04.22-.08.33-.13.35-.15.71-.32,1.08-.49.88-.42,1.67-.98,2.37-1.68.67-.67,1.19-1.32,1.59-2,.22-.37.44-.84.61-1.41.18.19.35.38.53.56.84.86,1.77,1.67,2.77,2.4.04.03.08.06.12.08,2.72,1.86,5.8,2.95,9.16,3.23.66.06,1.34.09,2.01.09.34,0,.68,0,1.01-.02,1.35-.06,2.71-.36,4.02-.9.02,0,.04-.02.06-.02,2.61-1.1,4.74-2.69,6.34-4.71,1.48-1.87,2.57-4.07,3.24-6.55.57-1.86.95-3.75,1.14-5.63.18-1.81.23-3.69.15-5.59,0-.02,0-.05,0-.07-.22-3.91-1.26-7.63-3.11-11.07-.61-1.15-1.28-2.28-1.97-3.37-.48-.75-.98-1.49-1.5-2.22.4.15.82.26,1.26.33.39.08.78.11,1.16.11,1.26,0,2.44-.39,3.44-1.14.61-.46,1.13-1.01,1.55-1.65,1.34-1.9,1.6-4.27.69-6.4-.02-.04-.03-.07-.05-.11-.14-.3-.26-.59-.36-.85-.17-.42-.36-.86-.56-1.32-.01-.02-.02-.05-.03-.07-.27-.57-.52-1.12-.77-1.67-.4-.89-.9-1.74-1.48-2.54-1.21-1.69-2.54-3.25-3.97-4.63-.02-.02-.04-.04-.07-.06-.94-.88-2.02-1.64-3.24-2.28-1.21-.63-2.5-1.1-3.83-1.38-.9-.19-1.82-.29-2.74-.29-.58,0-1.16.04-1.74.12-1.64.22-3.19.76-4.6,1.63-.02.01-.04.02-.05.03l-.53.33-.3.19-.15.09-.68.43c-.07.04-.14.09-.21.14-1.37.95-2.56,2.1-3.54,3.42-.94,1.27-1.69,2.68-2.23,4.18-.52,1.47-.84,3.01-.94,4.56-.1,1.58.03,3.16.39,4.69,0,.03.01.05.02.08.43,1.73,1.04,3.4,1.8,4.96.66,1.37,1.41,2.74,2.2,4.07.66,1.13,1.39,2.24,2.16,3.3.66.91,1.32,1.84,2,2.78.46.69.89,1.4,1.28,2.13.3.56.54,1.18.71,1.84.01.04.02.08.03.11.33,1.12.46,2.19.42,3.25-.02.41-.05.82-.11,1.23-.04-.1-.07-.21-.1-.31-.22-.76-.41-1.56-.55-2.37,0-.02,0-.03,0-.05-.37-2.05-1.21-3.85-2.48-5.35-.82-.96-1.73-1.91-2.72-2.81-.97-.89-2.24-1.37-3.53-1.37-.43,0-.85.05-1.28.16-1.7.43-3.08,1.69-3.65,3.34-.23.67-.48,1.3-.73,1.88-.04.09-.07.18-.11.26-.29-1.46-.56-2.91-.79-4.34-.37-2.32-.66-4.73-.86-7.15-.16-1.85-.2-3.69-.14-5.5.07-1.95.15-3.94.25-5.93.07-.83.13-1.66.18-2.47.08-1.23,0-2.46-.25-3.66-.2-1.32-.73-2.62-1.57-3.87-1.3-1.92-3.32-3.1-5.7-3.33-.34-.04-.67-.06-1-.06-1.08,0-2.1.22-3.03.67-1.64.78-2.84,2.16-3.38,3.92-.22.64-.44,1.28-.63,1.91-1.06.24-2.11.52-3.13.84-1.91.59-3.84,1.35-5.73,2.25-1.95.93-3.78,2.03-5.45,3.25-1.59,1.16-3.14,2.46-4.61,3.85-1.92,1.83-3.59,3.85-4.98,6.04-.02-.33-.05-.66-.08-.99-.14-1.54-.4-3.1-.77-4.64,0-.02-.01-.04-.02-.07-.16-.64-.33-1.26-.51-1.85-.24-.8-.57-1.57-1-2.32.07-.06.14-.13.21-.2,1.14-1.14,1.77-2.67,1.77-4.3,0-.12,0-.25-.01-.37-.09-1.23-.46-2.45-1.14-3.73-.89-1.69-2.11-2.87-3.63-3.53-.46-.21-.92-.4-1.36-.57-.86-.33-1.65-.48-2.42-.48-.92,0-1.81.22-2.6.65-.96.5-1.8,1.14-2.49,1.92,0,.01-.02.02-.03.03-.64.73-1.15,1.59-1.53,2.54-.51,1.3-.63,2.75-.36,4.29.13.73.32,1.4.57,2-.86.96-1.47,2.11-1.8,3.41-.25,1.01-.41,2.04-.46,3.06-.04.74-.05,1.47-.03,2.16.01.46.02.93.02,1.4-.03.59-.06,1.17-.08,1.73-.02.51-.04,1.05-.07,1.59,0,.1,0,.2,0,.3,0,1,0,1.98.03,2.91.01.82,0,1.67-.02,2.51,0,.03,0,.06,0,.08-.04,1.84.01,3.65.14,5.39.09,1.17.18,2.35.28,3.53-.21.06-.42.12-.62.2-.46.17-.94.36-1.42.56-.1.04-.2.09-.31.14-2.65,1.31-5.18,2.93-7.52,4.82-.08-.76-.14-1.54-.17-2.33-.04-1.25-.17-2.51-.38-3.75-.17-1.02-.34-2.02-.52-3.02l-.17-1.08-.14-.86-.13-.84-.16-1.03c-.04-.4-.07-.81-.08-1.21-.03-1-.19-2-.46-2.97-.21-.84-.36-1.7-.45-2.54-.12-1.06-.23-2.15-.33-3.25,0-.01,0-.03,0-.04-.02-.17-.03-.32-.03-.46,0-.48-.03-.97-.08-1.5,0-.03,0-.07-.01-.1-.06-.51-.12-1.06-.16-1.64-.05-.61-.11-1.22-.18-1.81-.02-.54-.04-1.09-.04-1.63,0-1.03-.12-2.07-.36-3.1v-2.95c0-.98-.02-1.99-.05-2.99l-.03-.77-.08-2.11c-.04-1-.09-2.02-.17-3.01-.04-.57-.09-1.15-.14-1.71-.05-.52-.11-1.07-.18-1.63-.09-1.07-.26-2.13-.49-3.17-.21-.93-.46-1.87-.73-2.79,0-.03-.02-.06-.03-.09-.6-1.94-1.68-3.59-3.2-4.91-1.69-1.47-3.78-2.24-6.05-2.24-.08,0-.16,0-.24,0-.63,0-1.27.08-1.93.23-2.01.45-3.61,1.83-4.39,3.78-.06.14-.11.29-.15.44-.19.62-.39,1.26-.6,1.91-.34,1.02-.57,2.08-.68,3.15-.15,1.33-.26,2.68-.33,4.03-.08,1.39-.1,2.82-.06,4.24.07,2.27.14,4.51.21,6.73.07,2.28.2,4.59.37,6.85Z"/>
  <path class="cls-2" d="M150.29,64.44c.04,1.98.15,3.97.33,5.89.18,1.85.39,3.74.64,5.62.21,1.85.43,3.66.65,5.37.22,1.69.41,3.44.58,5.19,0,.01,0,.03,0,.04.18,1.73.4,3.47.65,5.15.29,1.96.81,3.92,1.53,5.82.47,1.24,1.16,2.33,2.05,3.22l.36.36.77.77c1.08,1.08,2.57,1.68,4.2,1.68.27,0,.55-.02.81-.06.48-.08.95-.13,1.42-.15,1.5-.08,2.97-.55,4.33-1.38,1.14-.69,2.18-1.51,3.1-2.42,1.08-1.08,1.95-2.37,2.59-3.82.26-.59.53-1.19.8-1.77.22-.49.47-.98.73-1.48.99-1.77,1.98-3.57,2.94-5.36.99-1.83,1.96-3.68,2.89-5.51,1.09-2.12,2.16-4.32,3.16-6.52.97-2.13,1.96-4.32,2.93-6.51.29-.65.57-1.31.86-1.97-.26,1.55-.43,3.15-.51,4.74-.07,1.43-.12,2.91-.14,4.39-.02,1.6.07,3.22.26,4.84.2,2.1.58,4.16,1.11,6.14.56,2.04,1.34,4.07,2.32,6.03.02.04.04.07.06.11,1.58,2.97,3.63,5.4,6.09,7.21,2.58,1.9,5.67,3.05,9.19,3.43.74.08,1.51.13,2.24.13,2.59,0,5.01-.53,7.18-1.57,2.57-1.22,4.88-3.03,6.87-5.38,1.1-1.26,2.15-2.58,3.12-3.92.83-1.16,1.6-2.39,2.3-3.66.77,2.22,1.88,4.29,3.33,6.17.05.06.1.12.15.18.67.78,1.37,1.55,2.09,2.29.84.86,1.77,1.67,2.77,2.4.04.03.08.06.12.08,2.72,1.86,5.8,2.95,9.16,3.23.66.06,1.34.09,2.01.09.34,0,.68,0,1.01-.02,1.35-.06,2.71-.36,4.02-.9.02,0,.04-.02.06-.02,2.61-1.1,4.74-2.69,6.34-4.71.83-1.05,1.54-2.22,2.12-3.47.03.14.06.27.1.41.2.91.54,1.82,1,2.72.61,1.24,1.38,2.36,2.29,3.33,1.39,1.47,3.27,2.41,5.45,2.71.05,0,.11.01.16.02.29.03.58.05.86.05.25,0,.49-.01.73-.04-.07,1.92,0,3.85.2,5.76.21,1.91.61,3.77,1.2,5.51.63,1.88,1.55,3.69,2.73,5.38,0,.01.02.02.02.03,1.27,1.78,2.72,3.38,4.31,4.76,1.62,1.41,3.5,2.62,5.57,3.62.01,0,.03.01.04.02,2.21,1.04,4.48,1.69,6.76,1.94.61.07,1.23.1,1.84.1,1.84,0,3.71-.3,5.57-.91,1.33-.4,2.62-.93,3.81-1.56,1.1-.58,2.2-1.25,3.26-1.99.02-.01.04-.03.06-.04,3.28-2.34,6.05-5.19,8.23-8.48.89-1.36,1.67-2.78,2.32-4.25.61-1.37,1.15-2.79,1.62-4.22.41-1.22.73-2.18.97-2.88.29-.85.53-1.64.71-2.36.21-.8.37-1.67.5-2.61.07-.48.13-1.04.19-1.68.4.57.83,1.13,1.32,1.65,1.07,1.19,2.5,1.91,4.07,2.03.34.03.72.04,1.14.04.4,0,.79-.01,1.16-.04.83-.05,1.66-.25,2.45-.59.16-.07.32-.15.48-.23.66-.36,1.19-.74,1.64-1.13.62-.55,1.15-1.24,1.57-2.06.48-.88.87-1.85,1.14-2.88.23-.75.38-1.52.45-2.3.02-.31.06-.63.11-.95,0-.02,0-.04,0-.06.04-.31.1-.62.18-.92.16-.64.29-1.28.38-1.92.19-1.18.33-2.39.41-3.6.04-.69.16-1.36.33-2,.25-.83.46-1.68.62-2.54.09-.46.22-.93.37-1.38.02-.06.04-.13.06-.19.3-.96.59-1.91.89-2.84-.06.78-.07,1.57-.06,2.34.02.69.02,1.39.02,2.07-.11,4.2.23,8.39,1,12.45.03.4.09.8.19,1.19.02.08.04.15.06.23.17.95.56,1.86,1.14,2.63,0,0,.01.02.02.02,1.1,1.44,2.64,2.5,4.44,3.06.89.28,1.79.42,2.68.42.95,0,1.9-.16,2.8-.48,0,0,.02,0,.03-.01.62-.22,1.22-.46,1.77-.72.31-.14.65-.29,1-.42.11-.04.21-.08.31-.13.87-.4,1.66-.9,2.34-1.47,1.2-1.01,1.95-2.39,2.18-3.94.31-.83.45-1.71.39-2.6-.04-.54-.12-1.06-.24-1.59-.05-.23-.09-.46-.12-.7-.06-.37-.12-.75-.2-1.16-.17-.98-.27-1.98-.32-2.96-.05-1.22-.11-2.45-.18-3.67-.1-2.39-.11-4.8-.05-7.19.07-2.46.19-4.94.35-7.37,0-.04,0-.07,0-.11.07-1.39.16-2.79.27-4.18.12-1.46.24-2.94.34-4.4.15-1.92.2-3.82.14-5.67-.06-2-.32-4.04-.77-6.05,0-.04-.02-.08-.03-.12-.16-.65-.37-1.29-.62-1.91-.33-.82-.79-1.59-1.35-2.31-.3-.4-.64-.79-.99-1.17-1.12-1.2-2.67-1.94-4.37-2.09-.15-.01-.29-.02-.44-.02-.16,0-.32,0-.46-.02-.36-.04-.73-.07-1.14-.11-.16-.01-.32-.02-.48-.02-2.3,0-4.35.94-5.79,2.66-.15.17-.29.32-.42.45-.31.31-.63.65-.94,1.01-.01.01-.02.03-.03.04-.36.42-.75.85-1.14,1.28-.61.65-1.16,1.36-1.65,2.09-.6.87-1.18,1.75-1.7,2.62-.49.81-1,1.66-1.5,2.53-.6,1.03-1.21,2.1-1.8,3.18,0,.02-.02.03-.03.05,0-.07-.01-.13-.02-.2-.1-1.06-.25-2.14-.44-3.22-.1-.69-.21-1.35-.31-1.99-.09-.54-.16-1.1-.22-1.68,0-.03,0-.06-.01-.1-.12-1.05-.37-2.03-.74-2.93-.32-.77-.72-1.54-1.2-2.29-1.31-2.04-3.02-2.82-4.21-3.12-.66-.17-1.35-.25-2.05-.25-.37,0-.75.02-1.12.07-2.05.2-3.84,1.27-5.09,3.04-.48.66-.87,1.37-1.18,2.11-.2-.57-.47-1.1-.82-1.6,0-.01-.02-.03-.03-.04-.05-.06-.09-.12-.12-.17-.07-.1-.14-.2-.21-.3-1.3-1.68-3.11-2.65-5.12-2.73-.17,0-.32,0-.47,0-.55,0-1.11.04-1.67.11-.98.09-2.34.34-3.58,1.3-1.7,1.33-2.13,3.19-2.28,3.81-.01.05-.02.09-.03.14-.05.27-.1.54-.15.82-.72.15-1.42.32-2.12.5-1.93.52-3.87,1.18-5.75,1.95-2.2.89-4.28,2.06-6.14,3.48-1.64,1.24-3.25,2.59-4.78,4.02-1.72,1.6-3.26,3.37-4.58,5.26-1.42,2.04-2.5,4.33-3.21,6.79-.28.9-.47,1.81-.6,2.72,0-.12-.02-.25-.04-.37,0-.66-.01-1.33-.03-1.98-.02-.74,0-1.52.02-2.32,0-.02,0-.05,0-.07.04-1.52-.01-3.05-.15-4.54-.14-1.54-.4-3.1-.77-4.64,0-.02-.01-.04-.02-.07-.16-.64-.33-1.26-.51-1.85-.24-.8-.57-1.57-1-2.32.07-.06.14-.13.21-.2,1.14-1.14,1.77-2.67,1.77-4.3,0-.12,0-.25-.01-.37-.09-1.23-.46-2.45-1.14-3.73-.89-1.69-2.11-2.87-3.63-3.53-.46-.21-.92-.4-1.36-.57-.86-.33-1.65-.48-2.42-.48-.92,0-1.81.22-2.6.65-.96.5-1.8,1.14-2.49,1.92,0,.01-.02.02-.03.03-.64.73-1.15,1.59-1.53,2.54-.22.58-.37,1.18-.44,1.8-.92-1.16-1.9-2.26-2.93-3.26-.02-.02-.04-.04-.07-.06-.94-.88-2.02-1.64-3.24-2.28-1.21-.63-2.5-1.1-3.83-1.38-.9-.19-1.82-.29-2.74-.29-.58,0-1.16.04-1.74.12-1.64.22-3.19.76-4.6,1.63-.02.01-.04.02-.05.03l-.53.33-.3.19-.15.09-.68.43c-.07.04-.14.09-.21.14-1.37.95-2.56,2.1-3.54,3.42-.94,1.27-1.69,2.68-2.23,4.18-.52,1.47-.84,3.01-.94,4.56-.1,1.58.03,3.16.39,4.69,0,.03.01.05.02.08.43,1.73,1.04,3.4,1.8,4.96.66,1.37,1.41,2.74,2.2,4.07.66,1.13,1.39,2.24,2.16,3.3.66.91,1.32,1.84,2,2.78.46.69.89,1.4,1.28,2.13.3.56.54,1.18.71,1.84.01.04.02.08.03.11.33,1.12.46,2.19.42,3.25-.02.41-.05.82-.11,1.23-.04-.1-.07-.21-.1-.31-.22-.76-.41-1.56-.55-2.37,0-.02,0-.03,0-.05-.37-2.05-1.21-3.85-2.48-5.35-.82-.96-1.73-1.91-2.72-2.81-.97-.89-2.24-1.37-3.53-1.37-.43,0-.85.05-1.28.16-.69.17-1.32.49-1.87.9-.24-.24-.5-.46-.77-.65-.17-.12-.34-.23-.52-.33-.44-.24-.9-.44-1.39-.6,1.63-2.63,2.75-5.52,3.36-8.65,0-.02,0-.03,0-.05.34-1.86.39-3.71.14-5.5-.27-1.93-.92-3.77-1.93-5.48-.78-1.32-1.65-2.57-2.58-3.72-1.13-1.4-2.48-2.62-4.02-3.61-.1-.06-.2-.12-.3-.18-.21-.12-.41-.24-.6-.36-.19-.13-.38-.26-.56-.39-.03-.02-.06-.04-.09-.06-1.75-1.26-3.65-2.07-5.64-2.41-1.19-.2-2.42-.31-3.64-.31-.4,0-.81.01-1.22.03-.01,0-.03,0-.04,0-1.52.1-3.02.37-4.47.82-1.34.42-2.67.96-3.94,1.62-.01,0-.03.01-.04.02-1.47.78-2.85,1.69-4.12,2.71-1.28,1.04-2.47,2.24-3.53,3.56-.56.69-1.07,1.4-1.56,2.13.4-1.45.77-2.91,1.07-4.34.43-2.06.61-4.2.52-6.35,0-.03,0-.06,0-.09-.08-1.46-.27-2.92-.57-4.33-.35-1.7-.98-3.36-1.86-4.94-.03-.05-.05-.1-.08-.14-1.47-2.43-3.36-4.31-5.61-5.58-1.72-.97-3.65-1.46-5.74-1.46-1.08,0-2.21.13-3.37.4-.03,0-.05.01-.08.02-2.5.61-4.79,1.58-6.81,2.87-1.87,1.14-3.64,2.41-5.25,3.78-.45.38-.88.78-1.3,1.2-.88-.9-1.94-1.58-3.14-2.02-.86-.32-1.75-.48-2.65-.48-1.65,0-3.29.55-4.74,1.58-1.25.88-2.27,1.95-3.06,3.18-.87,1.37-1.38,2.94-1.52,4.67-.08.83-.13,1.67-.15,2.51-.01.58-.05,1.16-.1,1.71-.19,1.73-.3,3.48-.34,5.21-.04,1.6-.05,3.25-.05,4.89,0,2.08.06,4.15.19,6.15.12,1.81.21,3.71.28,5.63ZM169.75,54.47c.14-.51.35-1.01.63-1.51,1.19-2.03,2.5-3.97,3.9-5.78,1.32-1.7,2.86-3.3,4.57-4.75.6-.49,1.23-.97,1.87-1.41-.02.1-.05.19-.07.28-.21.79-.42,1.59-.63,2.39,0,.03-.01.05-.02.08-.33,1.33-.73,2.61-1.2,3.81-.53,1.36-1.1,2.76-1.7,4.15-.01.03-.03.06-.04.09-.55,1.35-1.13,2.68-1.74,3.93-.65,1.35-1.32,2.71-1.99,4.06,0,.02-.02.04-.03.05-.6,1.24-1.18,2.46-1.73,3.65-.42.9-.85,1.81-1.3,2.72-.07-1.23-.14-2.46-.21-3.7-.07-1.12-.12-2.22-.15-3.29-.04-1.25-.11-2.51-.23-3.75,0-.01,0-.03,0-.04-.04-.38-.02-.71.06-1ZM216.16,82.38c-.41.66-.86,1.29-1.34,1.88-.35.43-.72.84-1.13,1.22-.16-.05-.32-.1-.46-.17-.31-.14-.6-.37-.89-.69-.12-.14-.23-.28-.33-.42.25-.08.5-.17.75-.27,1.16-.44,2.3-.96,3.41-1.55ZM217.97,59.17c-.01.06-.02.12-.03.18-.22,1.38-.64,2.67-1.23,3.86-.54,1.09-1.28,2.05-2.26,2.93-.03.03-.06.06-.09.09-.61.58-1.24,1.14-1.87,1.67-.65.54-1.34,1.08-2.05,1.61,0,0-.02.01-.03.02-.19.14-.39.28-.59.42.1-.72.22-1.44.36-2.15,0-.02,0-.04.01-.07.39-2.05,1.04-3.99,1.93-5.76.44-.87.96-1.64,1.61-2.33.55-.59,1.2-1.06,1.98-1.44.21-.1.51-.22.75-.22.07,0,.15.01.23.03.31.08.73.26,1.26.89.02.02.03.04.04.05,0,.06,0,.13-.03.23ZM259.21,65.58c-.48-.75-.98-1.49-1.5-2.22.4.15.82.26,1.26.33.27.05.54.08.81.1-.01.24-.02.49-.04.74,0,.1,0,.2,0,.3,0,.55,0,1.09,0,1.62-.18-.29-.35-.58-.53-.86ZM279.05,79.06c1.09,1.92,2.46,3.5,4.08,4.73,1.7,1.28,3.72,2.15,6.01,2.57.08.01.15.03.23.04,1.07.15,2.14.22,3.18.22,2.75,0,5.42-.52,7.96-1.54.9-.37,1.77-.78,2.61-1.23-.28,2.63-.57,5.24-.86,7.73,0,.02,0,.03,0,.05-.15,1.44-.19,2.03-.21,2.34-.02.35-.03.65-.05.91h0s-.01.14-.06.44c-.02.09-.09.47-.38,1.59,0,.02-.01.04-.02.07-.36,1.48-.76,2.98-1.19,4.47-.35,1.21-.83,2.41-1.43,3.55-.01.03-.03.06-.04.09-.58,1.16-1.27,2.1-2.11,2.86-.76.69-1.68,1.21-2.81,1.57-.38.12-.73.18-1.04.18-.19,0-.38-.02-.56-.08-.4-.11-.68-.3-.96-.64-.37-.49-.63-1.02-.79-1.6,0-.03-.02-.07-.03-.1-.05-.17-.07-.32-.07-.47.02-.66.04-1.33.07-1.98,0-.09,0-.17,0-.26,0-.98.06-1.95.19-2.9.06-.46.23-.92.51-1.41.35-.57.61-1.22.81-2.01.02-.09.04-.17.06-.26.21-1.05.13-2.17-.22-3.23-.08-.23-.17-.46-.28-.68-.46-.92-1.12-1.71-1.97-2.37-.6-.46-1.26-.84-1.97-1.13-.67-.28-1.36-.47-2.05-.59-.46-.08-.92-.12-1.36-.12-.38,0-.76.03-1.12.09-.05,0-.09.02-.14.02,0,0-.02,0-.02,0-.19-.01-.38-.02-.57-.02-1.09,0-2.16.2-3.16.61-.18.07-.36.15-.53.24-.02-.16-.03-.31-.05-.46v-.77c0-.46-.02-.95-.07-1.48l-.78-10.87c-.03-.46-.05-.92-.07-1.39.26,1.1.68,2.18,1.27,3.23Z"/>
  <g>
    <path class="cls-1" d="M23.91,91.6c.62.04,1.19-.05,1.69-.26.5-.21,1-.43,1.48-.67.76-.38,1.48-.78,2.16-1.19.68-.42,1.33-.9,1.95-1.45,2.11-1.73,4.36-3.19,6.75-4.36.42-.17.83-.34,1.25-.49.42-.16.87-.23,1.35-.23.55,0,.96.15,1.22.44.26.3.3.68.13,1.17-.17.45-.36.86-.57,1.22-.21.36-.52.68-.94.96-1.45,1-2.87,2.01-4.26,3.01-1.39,1-2.8,2.01-4.26,3.01-1.18.8-2.38,1.54-3.61,2.23-1.23.69-2.55,1.19-3.97,1.51-.59.17-1.19.3-1.79.36-.61.07-1.22.14-1.84.21-.69.07-1.37.03-2.03-.13-.66-.16-1.32-.37-1.97-.65-.14-.07-.27-.16-.39-.26-.12-.1-.22-.22-.29-.36-.24-.55-.48-1.09-.73-1.61-.24-.52-.42-1.06-.52-1.61-.55-2.49-.95-4.98-1.19-7.45-.24-2.47-.45-4.96-.62-7.45-.17-2.39-.36-4.75-.57-7.09s-.49-4.7-.83-7.09c-.24-1.66-.44-3.33-.6-5.01-.16-1.68-.29-3.37-.39-5.06-.17-2.22-.29-4.43-.36-6.65-.07-2.22-.14-4.45-.21-6.7-.03-1.28-.02-2.55.05-3.82.07-1.26.17-2.52.31-3.77.07-.69.22-1.38.44-2.05.22-.68.44-1.36.65-2.05.14-.35.36-.55.67-.62.31-.07.61-.1.88-.1,1.07-.03,2,.29,2.78.96.78.67,1.32,1.51,1.64,2.52.24.83.46,1.66.65,2.49.19.83.32,1.68.39,2.54.07.56.13,1.09.18,1.61.05.52.09,1.04.13,1.56.07.94.12,1.88.16,2.83.03.95.07,1.91.1,2.88.03.93.05,1.87.05,2.8v3.43c0,.21.03.4.1.57.17.69.26,1.38.26,2.05s.02,1.36.05,2.05c.07.59.13,1.19.18,1.82.05.62.11,1.23.18,1.82.03.35.05.68.05.99s.02.64.05.99c.1,1.11.22,2.22.34,3.32.12,1.11.32,2.22.6,3.32.17.59.27,1.18.29,1.77.02.59.06,1.18.13,1.77.1.66.21,1.32.31,1.97s.21,1.32.31,1.97c.17,1,.35,2.02.52,3.04.17,1.02.28,2.05.31,3.09.07,1.45.2,2.88.39,4.26.19,1.39.35,2.79.49,4.21.03.24.08.48.13.7.05.23.11.48.18.75Z"/>
    <path class="cls-1" d="M51.28,89.47c.1.9.19,1.75.26,2.54.07.69.12,1.35.16,1.97s.02,1.06-.05,1.3c-.17.66-.45,1.16-.83,1.51-.38.35-.9.48-1.56.42-1-.14-1.79-.51-2.36-1.12-.57-.61-1.05-1.31-1.43-2.1-.28-.52-.47-1.02-.57-1.51-.1-.45-.21-.88-.31-1.3-.1-.42-.19-.85-.26-1.3-.17-1.84-.36-3.65-.55-5.45-.19-1.8-.36-3.62-.49-5.45-.14-1.63-.27-3.24-.39-4.83-.12-1.59-.16-3.22-.13-4.88.03-.93.04-1.87.03-2.8-.02-.93-.03-1.87-.03-2.8.03-.59.06-1.17.08-1.74.02-.57.04-1.15.08-1.74,0-.59,0-1.16-.03-1.71-.02-.55,0-1.13.03-1.71.03-.69.14-1.39.31-2.08.21-.83.7-1.45,1.48-1.84s1.55-.41,2.31-.03c.28.14.51.32.7.55.19.23.37.46.55.7.31.48.55.99.7,1.51.16.52.3,1.06.44,1.61.31,1.32.53,2.62.65,3.92.12,1.3.16,2.61.13,3.92-.04.9-.04,1.77-.03,2.62.02.85.03,1.72.03,2.62h.05c.07,1.04.1,2.07.1,3.09s.03,2.05.1,3.09l.78,10.91c.03.38.05.74.05,1.07v1.07ZM47.28,48.85c-.21.1-.45.17-.73.21-.28.04-.55,0-.81-.08-.26-.09-.5-.28-.73-.57-.23-.29-.39-.74-.49-1.33-.1-.59-.08-1.08.08-1.48.16-.4.35-.74.6-1.01.28-.31.62-.57,1.04-.78.1-.07.34-.03.7.1.36.14.74.3,1.12.47.42.17.79.57,1.12,1.19.33.62.51,1.18.55,1.66,0,.24-.08.44-.23.6s-.36.3-.62.44c-.26.14-.53.25-.81.34-.28.09-.54.16-.78.23Z"/>
    <path class="cls-1" d="M91.54,97.16c-.38.03-.76-.02-1.14-.16-.31-.07-.65-.21-1.01-.42-.36-.21-.7-.5-1.01-.88-1.04-1.49-1.84-3.06-2.39-4.73-.55-1.66-1.04-3.38-1.45-5.14-.24-1.07-.45-2.15-.62-3.22-.17-1.07-.31-2.16-.42-3.27-.17-1.66-.36-3.3-.55-4.91-.19-1.61-.37-3.25-.55-4.91-.04-.45-.06-.9-.08-1.35-.02-.45-.06-.93-.13-1.45-.31.38-.58.74-.81,1.06-.23.33-.41.68-.55,1.07-.62,1.66-1.34,3.28-2.16,4.86-.81,1.58-1.64,3.16-2.47,4.75-.38.66-.71,1.32-.99,2-.28.68-.61,1.34-.99,2-.28.49-.57.94-.88,1.38s-.62.86-.93,1.27c-.76.93-1.56,1.81-2.39,2.62-.83.81-1.8,1.48-2.91,2-1.73.9-3.57,1.26-5.51,1.09-.9-.07-1.69-.35-2.36-.83-.67-.48-1.27-1.09-1.79-1.82-.55-.73-.96-1.51-1.22-2.34-.26-.83-.44-1.7-.55-2.6-.24-1.66-.29-3.32-.13-4.96.16-1.64.41-3.3.75-4.96.28-1.21.58-2.4.91-3.56.33-1.16.79-2.29,1.38-3.4,1.35-2.6,3.12-4.94,5.3-7.01,1.32-1.25,2.68-2.39,4.1-3.43,1.42-1.04,2.96-1.96,4.62-2.75s3.33-1.45,5.01-1.97c1.68-.52,3.4-.92,5.17-1.19.1,0,.19-.02.26-.05.07-.03.14-.05.21-.05.28-.87.54-1.69.78-2.47.24-.78.5-1.57.78-2.36.1-.38.32-.65.65-.81.33-.16.74-.2,1.22-.13.87.07,1.51.42,1.95,1.07.43.64.68,1.25.75,1.84.17.8.23,1.61.18,2.44-.05.83-.11,1.65-.18,2.44-.1,2.04-.19,4.08-.26,6.1-.07,2.03-.02,4.06.16,6.1.21,2.56.51,5.08.91,7.56.4,2.48.87,4.96,1.43,7.45.31,1.49.66,2.97,1.04,4.44.38,1.47.76,2.93,1.14,4.39.21.83.44,1.65.7,2.44.26.8.53,1.61.81,2.44.03.14.09.38.16.73.07.49.02.88-.16,1.17-.17.29-.43.62-.78.96-.28.28-.58.49-.91.65-.33.16-.65.3-.96.44-.38.14-.76.26-1.14.36ZM66.61,84.38h.26c.21-.07.36-.14.47-.21,1.94-1.14,3.45-2.72,4.52-4.73.31-.59.6-1.18.86-1.77.26-.59.55-1.18.86-1.77.59-1.11,1.22-2.18,1.9-3.22.68-1.04,1.22-2.16,1.64-3.38.35-.93.74-1.85,1.19-2.75s.87-1.8,1.25-2.7c.48-1.18.97-2.35,1.45-3.53.48-1.18.9-2.37,1.25-3.58.1-.38.19-.76.26-1.14.07-.38.05-.8-.05-1.25-.38.07-.74.16-1.07.29-.33.12-.65.27-.96.44-1.25.62-2.47,1.28-3.66,1.97-1.19.69-2.35,1.45-3.45,2.29-.9.69-1.75,1.41-2.55,2.16-.8.75-1.44,1.62-1.92,2.62-.21.45-.42.89-.65,1.32-.23.43-.42.88-.6,1.33-.28.73-.55,1.46-.81,2.21-.26.74-.48,1.5-.65,2.26-.17.66-.3,1.32-.36,2-.07.68-.14,1.36-.21,2.05-.14,1.14-.2,2.29-.18,3.43.02,1.14.13,2.28.34,3.43.07.38.16.77.29,1.17.12.4.32.75.6,1.07Z"/>
    <path class="cls-1" d="M101.93,74.77c.83.76,1.58,1.54,2.26,2.34.68.8,1.12,1.77,1.33,2.91.17,1,.4,1.98.67,2.93.28.95.71,1.86,1.3,2.73.38.52.78.98,1.19,1.38s.87.79,1.35,1.17c.42.31.87.51,1.35.6.48.09.97.11,1.45.08.42-.07.76-.21,1.04-.42.42-.38.8-.8,1.14-1.25.35-.45.61-.97.78-1.56.48-1.63.76-3.25.83-4.88.07-1.63-.14-3.27-.62-4.93-.28-1.04-.66-2.02-1.14-2.94-.48-.92-1.02-1.81-1.61-2.68-.69-.97-1.38-1.92-2.05-2.86-.68-.93-1.31-1.9-1.9-2.91-.73-1.21-1.39-2.44-2-3.69-.61-1.25-1.08-2.56-1.43-3.95-.24-1.04-.33-2.1-.26-3.17s.29-2.12.65-3.14c.36-1.02.86-1.96,1.51-2.83.64-.87,1.41-1.61,2.31-2.23.28-.17.55-.35.83-.52.28-.17.55-.35.83-.52.8-.48,1.65-.79,2.57-.91.92-.12,1.82-.09,2.7.1.88.19,1.72.49,2.52.91.8.42,1.49.9,2.08,1.45,1.21,1.18,2.34,2.49,3.38,3.95.38.52.7,1.07.96,1.64.26.57.53,1.15.81,1.74.17.38.33.74.47,1.09.14.35.29.71.47,1.09.21.49.14.95-.21,1.4-.1.17-.23.31-.36.42-.14.1-.33.12-.57.05-.49-.03-.75-.29-.78-.78-.07-.31-.13-.62-.18-.93s-.13-.61-.23-.88c-.45-1.11-1.02-2.13-1.71-3.06-.69-.93-1.54-1.73-2.54-2.39-.42-.28-.88-.49-1.4-.65-.52-.16-1.02-.3-1.51-.44-.31-.07-.62-.06-.94.03-.31.09-.59.27-.83.55-.66.76-1.19,1.57-1.61,2.42-.42.85-.66,1.77-.73,2.78-.03.48.02.95.16,1.4.14.45.31.87.52,1.25.69,1.39,1.45,2.71,2.26,3.97.81,1.26,1.65,2.52,2.52,3.77.69.93,1.35,1.89,1.97,2.86.62.97,1.21,1.97,1.77,3.01,1.49,2.77,2.32,5.73,2.49,8.88.07,1.66.03,3.28-.13,4.86-.16,1.58-.48,3.14-.96,4.7-.49,1.84-1.26,3.42-2.31,4.75-1.06,1.33-2.48,2.38-4.29,3.14-.76.31-1.52.48-2.28.52-.76.04-1.54.02-2.34-.05-2.46-.21-4.68-.99-6.65-2.34-.76-.55-1.46-1.16-2.1-1.82-.64-.66-1.26-1.33-1.84-2.03-1.42-1.84-2.41-3.88-2.96-6.13-.24-.94-.32-1.86-.23-2.78.09-.92.27-1.83.55-2.73.24-.76.52-1.5.83-2.21.31-.71.61-1.46.88-2.26Z"/>
    <path class="cls-1" d="M165.92,40.59c.42-.62.81-1.2,1.17-1.74s.73-1.07,1.12-1.58c1.11-1.63,2.37-3.05,3.79-4.26,1.42-1.21,2.96-2.32,4.62-3.32,1.56-1,3.32-1.75,5.3-2.23,2.11-.48,3.9-.31,5.38.52,1.47.83,2.71,2.08,3.71,3.74.62,1.11,1.06,2.25,1.3,3.43.24,1.18.4,2.37.47,3.58.07,1.73-.07,3.42-.42,5.06-.35,1.65-.76,3.3-1.25,4.96-.87,2.84-1.84,5.63-2.93,8.36-1.09,2.74-2.24,5.45-3.45,8.16-.97,2.18-1.94,4.34-2.91,6.47-.97,2.13-1.99,4.23-3.06,6.31-.93,1.84-1.88,3.64-2.83,5.4-.95,1.77-1.93,3.55-2.93,5.35-.31.59-.61,1.19-.88,1.79s-.55,1.22-.83,1.84c-.38.87-.88,1.61-1.51,2.23-.62.62-1.33,1.18-2.13,1.66-.62.38-1.26.59-1.9.62-.64.04-1.29.1-1.95.21-.24,0-.42-.05-.52-.16-.38-.38-.75-.75-1.12-1.12-.36-.36-.65-.82-.86-1.38-.59-1.56-1-3.14-1.25-4.75-.24-1.61-.45-3.25-.62-4.91-.17-1.8-.37-3.58-.6-5.35-.23-1.77-.44-3.55-.65-5.35-.24-1.84-.45-3.66-.62-5.48-.17-1.82-.28-3.66-.31-5.53-.07-1.97-.16-3.91-.29-5.82-.12-1.9-.18-3.84-.18-5.82,0-1.59.02-3.19.05-4.78.03-1.59.14-3.19.31-4.78.07-.69.11-1.4.13-2.13s.06-1.45.13-2.18c.07-.9.31-1.68.73-2.34s.97-1.23,1.66-1.71c.86-.62,1.72-.78,2.57-.47.85.31,1.5.92,1.95,1.82.28.62.53,1.28.75,1.97.22.69.39,1.39.49,2.08.07.35.19.88.36,1.61ZM168.26,83.45c.35-.38.61-.76.78-1.14.17-.38.34-.74.49-1.07.16-.33.32-.67.49-1.01,1.14-1.97,2.23-3.97,3.27-6,1.04-2.03,2.06-4.08,3.06-6.16.59-1.18,1.15-2.35,1.69-3.51.54-1.16,1.1-2.35,1.69-3.56.69-1.38,1.37-2.76,2.03-4.13.66-1.37,1.28-2.78,1.87-4.23.62-1.45,1.21-2.89,1.77-4.31.55-1.42,1.02-2.91,1.4-4.47.21-.8.42-1.58.62-2.36.21-.78.35-1.58.42-2.42.07-.76.05-1.51-.05-2.26s-.35-1.46-.73-2.16c-.28-.59-.59-.98-.93-1.17-.35-.19-.85-.25-1.51-.18-.17.03-.33.06-.47.08-.14.02-.3.06-.47.13-1.25.35-2.39.86-3.43,1.53s-2.04,1.41-3.01,2.21c-2.01,1.7-3.79,3.55-5.35,5.56-1.56,2.01-3,4.14-4.31,6.39-.48.87-.86,1.76-1.12,2.67-.26.92-.34,1.9-.23,2.94.1,1.14.17,2.28.21,3.43s.09,2.29.16,3.43c.14,2.49.28,4.97.42,7.43.14,2.46.31,4.93.52,7.43.1,1,.19,2.03.26,3.06.07,1.04.14,2.08.21,3.12,0,.1,0,.23.03.36.02.14.1.26.23.36Z"/>
    <path class="cls-1" d="M230.44,76.07c-.66,1.45-1.32,2.89-2,4.31-.68,1.42-1.39,2.84-2.16,4.26-.69,1.35-1.48,2.64-2.36,3.87-.88,1.23-1.83,2.42-2.83,3.56-1.52,1.8-3.25,3.16-5.17,4.08-1.92.92-4.13,1.24-6.62.96-2.6-.28-4.81-1.09-6.65-2.44-1.84-1.35-3.36-3.17-4.57-5.45-.83-1.66-1.48-3.35-1.95-5.06-.47-1.71-.79-3.49-.96-5.32-.17-1.42-.25-2.82-.23-4.21.02-1.38.06-2.79.13-4.21.07-1.45.22-2.89.47-4.31.24-1.42.57-2.84.99-4.26.59-2.08,1.31-4.09,2.16-6.03.85-1.94,1.97-3.76,3.35-5.45.83-1.04,1.75-1.96,2.75-2.78,1-.81,2.09-1.53,3.27-2.16,1-.52,2.03-.94,3.09-1.27,1.06-.33,2.14-.53,3.25-.6,1.25-.07,2.48,0,3.69.21,1.21.21,2.37.71,3.48,1.51.28.21.56.41.86.6.29.19.6.37.91.55,1.07.69,2,1.52,2.78,2.49.78.97,1.5,2.01,2.16,3.12.66,1.11,1.07,2.28,1.25,3.53.17,1.25.14,2.53-.1,3.84-.83,4.29-2.86,7.98-6.08,11.06-.93.9-1.89,1.77-2.86,2.62-.97.85-1.99,1.64-3.06,2.36-1.52,1-3.11,1.82-4.75,2.44-1.64.62-3.4.97-5.27,1.04-.04,0-.19.04-.47.1.24,1.49.61,2.89,1.09,4.21.48,1.32,1.19,2.53,2.13,3.64.8.9,1.69,1.58,2.68,2.03.99.45,2.07.71,3.25.78.48.04.91-.06,1.27-.29s.74-.48,1.12-.75c.8-.69,1.52-1.45,2.18-2.26.66-.81,1.26-1.67,1.82-2.57.8-1.21,1.52-2.44,2.18-3.69.66-1.25,1.25-2.53,1.77-3.84.28-.62.6-1.15.96-1.58s.89-.7,1.58-.81c.42.03.78.14,1.09.31.24.17.43.41.57.7.14.3.09.68-.16,1.17ZM206.44,76.02c.45-.07.86-.12,1.22-.16s.72-.1,1.07-.21c1.21-.28,2.36-.68,3.45-1.22,1.09-.54,2.12-1.17,3.09-1.9.8-.59,1.56-1.19,2.29-1.79s1.44-1.24,2.13-1.9c1.45-1.32,2.6-2.8,3.43-4.47.83-1.66,1.4-3.45,1.71-5.35.17-.87.17-1.69,0-2.47-.17-.78-.55-1.51-1.14-2.21-1.11-1.32-2.42-2.17-3.92-2.57-1.51-.4-3.04-.22-4.6.55-1.35.66-2.52,1.52-3.51,2.57-.99,1.06-1.81,2.24-2.47,3.56-1.11,2.22-1.91,4.59-2.39,7.12-.28,1.35-.48,2.7-.6,4.05-.12,1.35-.15,2.72-.08,4.1.03.38.08.75.13,1.12s.11.75.18,1.17Z"/>
    <path class="cls-1" d="M236.98,74.77c.83.76,1.58,1.54,2.26,2.34.68.8,1.12,1.77,1.33,2.91.17,1,.4,1.98.67,2.93.28.95.71,1.86,1.3,2.73.38.52.78.98,1.19,1.38.42.4.87.79,1.35,1.17.42.31.87.51,1.35.6.48.09.97.11,1.45.08.42-.07.76-.21,1.04-.42.42-.38.8-.8,1.14-1.25.35-.45.61-.97.78-1.56.48-1.63.76-3.25.83-4.88.07-1.63-.14-3.27-.62-4.93-.28-1.04-.66-2.02-1.14-2.94-.48-.92-1.02-1.81-1.61-2.68-.69-.97-1.38-1.92-2.05-2.86-.68-.93-1.31-1.9-1.9-2.91-.73-1.21-1.39-2.44-2-3.69-.61-1.25-1.08-2.56-1.43-3.95-.24-1.04-.33-2.1-.26-3.17.07-1.07.29-2.12.65-3.14.36-1.02.86-1.96,1.51-2.83.64-.87,1.41-1.61,2.31-2.23.28-.17.55-.35.83-.52.28-.17.55-.35.83-.52.8-.48,1.65-.79,2.57-.91.92-.12,1.82-.09,2.7.1.88.19,1.72.49,2.52.91.8.42,1.49.9,2.08,1.45,1.21,1.18,2.34,2.49,3.38,3.95.38.52.7,1.07.96,1.64.26.57.53,1.15.81,1.74.17.38.33.74.47,1.09.14.35.29.71.47,1.09.21.49.14.95-.21,1.4-.1.17-.23.31-.36.42-.14.1-.33.12-.57.05-.49-.03-.75-.29-.78-.78-.07-.31-.13-.62-.18-.93s-.13-.61-.23-.88c-.45-1.11-1.02-2.13-1.71-3.06-.69-.93-1.54-1.73-2.54-2.39-.42-.28-.88-.49-1.4-.65-.52-.16-1.02-.3-1.51-.44-.31-.07-.62-.06-.94.03-.31.09-.59.27-.83.55-.66.76-1.19,1.57-1.61,2.42s-.66,1.77-.73,2.78c-.03.48.02.95.16,1.4.14.45.31.87.52,1.25.69,1.39,1.45,2.71,2.26,3.97.81,1.26,1.65,2.52,2.52,3.77.69.93,1.35,1.89,1.97,2.86.62.97,1.21,1.97,1.77,3.01,1.49,2.77,2.32,5.73,2.49,8.88.07,1.66.03,3.28-.13,4.86-.16,1.58-.48,3.14-.96,4.7-.49,1.84-1.26,3.42-2.31,4.75-1.06,1.33-2.48,2.38-4.29,3.14-.76.31-1.52.48-2.28.52-.76.04-1.54.02-2.34-.05-2.46-.21-4.68-.99-6.65-2.34-.76-.55-1.46-1.16-2.1-1.82-.64-.66-1.26-1.33-1.84-2.03-1.42-1.84-2.41-3.88-2.96-6.13-.24-.94-.32-1.86-.23-2.78.09-.92.27-1.83.55-2.73.24-.76.52-1.5.83-2.21.31-.71.61-1.46.88-2.26Z"/>
    <path class="cls-1" d="M275.21,89.47c.1.9.19,1.75.26,2.54.07.69.12,1.35.16,1.97.03.62.02,1.06-.05,1.3-.17.66-.45,1.16-.83,1.51-.38.35-.9.48-1.56.42-1-.14-1.79-.51-2.36-1.12-.57-.61-1.05-1.31-1.43-2.1-.28-.52-.47-1.02-.57-1.51-.1-.45-.21-.88-.31-1.3-.1-.42-.19-.85-.26-1.3-.17-1.84-.36-3.65-.55-5.45-.19-1.8-.36-3.62-.49-5.45-.14-1.63-.27-3.24-.39-4.83-.12-1.59-.16-3.22-.13-4.88.03-.93.04-1.87.03-2.8-.02-.93-.03-1.87-.03-2.8.03-.59.06-1.17.08-1.74.02-.57.04-1.15.08-1.74,0-.59,0-1.16-.03-1.71-.02-.55,0-1.13.03-1.71.03-.69.14-1.39.31-2.08.21-.83.7-1.45,1.48-1.84s1.55-.41,2.31-.03c.28.14.51.32.7.55.19.23.37.46.55.7.31.48.55.99.7,1.51.16.52.3,1.06.44,1.61.31,1.32.53,2.62.65,3.92.12,1.3.16,2.61.13,3.92-.04.9-.04,1.77-.03,2.62.02.85.03,1.72.03,2.62h.05c.07,1.04.1,2.07.1,3.09s.03,2.05.1,3.09l.78,10.91c.03.38.05.74.05,1.07v1.07ZM271.21,48.85c-.21.1-.45.17-.73.21-.28.04-.55,0-.81-.08-.26-.09-.5-.28-.73-.57-.23-.29-.39-.74-.49-1.33-.1-.59-.08-1.08.08-1.48.16-.4.35-.74.6-1.01.28-.31.62-.57,1.04-.78.1-.07.34-.03.7.1.36.14.74.3,1.12.47.42.17.79.57,1.12,1.19.33.62.51,1.18.55,1.66,0,.24-.08.44-.23.6s-.36.3-.62.44c-.26.14-.53.25-.81.34-.28.09-.54.16-.78.23Z"/>
    <path class="cls-1" d="M310.95,69.68c-.28.38-.55.76-.83,1.14-.28.38-.55.76-.83,1.14-1.21,1.56-2.54,2.94-4,4.16-1.45,1.21-3.12,2.2-4.99,2.96-2.67,1.07-5.49,1.4-8.47.99-1.49-.28-2.76-.81-3.82-1.61-1.06-.8-1.95-1.84-2.68-3.12-.62-1.11-.93-2.22-.91-3.35.02-1.13.2-2.24.55-3.35.55-1.94,1.38-3.7,2.49-5.3,1.11-1.59,2.39-3.06,3.84-4.42,1.42-1.32,2.88-2.54,4.39-3.69,1.51-1.14,3.16-2.08,4.96-2.8,1.7-.69,3.41-1.27,5.14-1.74,1.73-.47,3.53-.79,5.4-.96.07-.42.11-.81.13-1.17s.06-.74.13-1.12c.07-.35.13-.69.18-1.04s.11-.69.18-1.04c.1-.45.23-.74.39-.86.16-.12.48-.2.96-.23.45-.07.9-.09,1.35-.08.45.02.85.25,1.19.7.07.1.15.22.23.34.09.12.15.25.18.39.17.87.35,1.73.55,2.6.19.87.37,1.73.55,2.6.28,1.32.55,2.64.81,3.97.26,1.33.48,2.67.65,4.03.52,3.57.82,7.14.91,10.73.09,3.58.13,7.19.13,10.83,0,2.7-.04,5.38-.13,8.03-.09,2.65-.25,5.32-.49,8.03-.1,1.32-.21,2.35-.31,3.09-.1.74-.23,1.42-.39,2.03-.16.61-.36,1.26-.6,1.97-.24.71-.57,1.69-.99,2.93-.42,1.28-.89,2.53-1.43,3.74-.54,1.21-1.17,2.37-1.9,3.48-1.84,2.77-4.14,5.14-6.91,7.12-.9.62-1.81,1.18-2.73,1.66-.92.48-1.9.88-2.93,1.19-1.8.59-3.56.79-5.27.6-1.71-.19-3.42-.68-5.12-1.48-1.66-.8-3.13-1.75-4.42-2.86-1.28-1.11-2.44-2.39-3.48-3.84-.9-1.28-1.58-2.62-2.05-4.03-.47-1.4-.79-2.88-.96-4.44-.21-1.87-.26-3.74-.16-5.61.21-2.53.97-4.78,2.29-6.75.28-.45.68-.78,1.19-.99.52-.21,1.07-.28,1.66-.21.17,0,.36,0,.57-.03.21-.02.4-.04.57-.08.21-.03.47-.03.78.03s.61.14.91.26.55.27.78.44c.22.17.39.36.49.57.07.21.09.4.05.57-.07.28-.14.47-.21.57-.66,1.11-1.07,2.25-1.22,3.43-.16,1.18-.23,2.37-.23,3.58-.03.69-.06,1.39-.08,2.1-.02.71.08,1.41.29,2.1.35,1.25.92,2.39,1.71,3.43.97,1.21,2.18,2.03,3.64,2.44,1.45.42,2.99.36,4.62-.16,1.84-.59,3.41-1.48,4.73-2.68,1.32-1.19,2.41-2.66,3.27-4.39.76-1.45,1.37-2.96,1.82-4.52.45-1.56.86-3.12,1.25-4.67.24-.94.4-1.6.47-2,.07-.4.11-.74.13-1.01.02-.28.03-.61.05-.99s.08-1.06.18-2.03c.31-2.67.61-5.32.88-7.97.28-2.65.55-5.32.83-8.03.07-.86.12-1.73.16-2.6.03-.87.09-1.73.16-2.6-.07-.03-.11-.06-.13-.08-.02-.02-.06-.04-.13-.08ZM293.45,72.18c0,1.32.69,1.8,2.08,1.45,1.87-.48,3.57-1.25,5.09-2.31,1.52-1.06,2.93-2.28,4.21-3.66,1.56-1.77,2.86-3.65,3.9-5.66,1.04-2.01,1.9-4.14,2.6-6.39.1-.24.16-.48.16-.73.07-1.18-.4-1.51-1.4-.99-.93.49-1.75,1-2.44,1.56-1.21,1-2.42,2.01-3.64,3.01-1.21,1-2.42,2.01-3.64,3.01-1.07.9-2.05,1.89-2.94,2.96-.88,1.07-1.67,2.22-2.36,3.43-.87,1.49-1.4,2.93-1.61,4.31Z"/>
    <path class="cls-1" d="M334.01,78.36c.21-.69.42-1.39.62-2.1.21-.71.4-1.41.57-2.1.28-1.18.59-2.33.93-3.45s.76-2.24,1.25-3.35c.48-1.21,1-2.43,1.53-3.66.54-1.23,1.1-2.45,1.69-3.66.52-1.07,1.06-2.13,1.64-3.17.57-1.04,1.15-2.06,1.74-3.06.48-.83.97-1.64,1.45-2.44.48-.8,1-1.59,1.56-2.39.35-.52.73-1.01,1.17-1.48.43-.47.86-.94,1.27-1.43.24-.28.48-.53.7-.75.22-.22.46-.48.7-.75.45-.55,1.06-.83,1.82-.83.38.04.73.07,1.06.1.33.04.67.05,1.01.05.42.04.74.18.99.44.24.26.47.53.67.81.28.35.49.71.65,1.09.16.38.29.78.39,1.19.38,1.7.6,3.39.65,5.06.05,1.68,0,3.39-.13,5.12-.1,1.45-.22,2.91-.34,4.36-.12,1.45-.22,2.91-.29,4.36-.17,2.53-.3,5.06-.36,7.58-.07,2.53-.05,5.06.05,7.58.07,1.21.13,2.42.18,3.64.05,1.21.18,2.42.39,3.64.07.38.13.74.18,1.07s.11.67.18,1.01c.07.28.11.55.13.81s-.08.53-.29.81c0,.04,0,.05-.03.05-.02,0-.03.02-.03.05.07.59-.06,1.02-.39,1.3-.33.28-.72.52-1.17.73-.45.17-.88.36-1.3.55-.42.19-.87.37-1.35.55-.69.24-1.43.24-2.21,0-.78-.24-1.39-.66-1.84-1.25-.1-.14-.16-.29-.18-.47-.02-.17-.06-.35-.13-.52-.04-.14-.05-.27-.05-.39s-.02-.25-.05-.39c-.73-3.77-1.04-7.62-.94-11.53,0-.76,0-1.51-.03-2.26-.02-.74,0-1.5.08-2.26.07-1.21.16-2.42.29-3.64.12-1.21.23-2.42.34-3.64.1-1,.22-2.01.34-3.01.12-1,.27-2.01.44-3.01.1-.8.23-1.59.39-2.39.16-.8.3-1.59.44-2.39.24-1.49.5-2.97.78-4.44.28-1.47.45-2.97.52-4.49.03-.21.04-.42.03-.62-.02-.21-.03-.45-.03-.73-1.07.76-1.94,1.63-2.6,2.6-.38.59-.74,1.19-1.07,1.79-.33.61-.67,1.2-1.01,1.79-.38.66-.77,1.32-1.17,1.97-.4.66-.79,1.32-1.17,1.97-.42.73-.78,1.45-1.09,2.18-.48,1.04-.96,2.07-1.43,3.09-.47,1.02-.94,2.05-1.43,3.09-.21.48-.4,1-.57,1.53-.17.54-.35,1.07-.52,1.58-.45,1.35-.89,2.7-1.32,4.05-.43,1.35-.86,2.7-1.27,4.05-.24.69-.43,1.39-.57,2.1-.14.71-.31,1.41-.52,2.1-.28,1-.45,2.03-.52,3.09-.07,1.06-.19,2.1-.36,3.14-.07.48-.16.97-.29,1.45-.12.48-.22.97-.29,1.45-.07.45-.12.89-.16,1.33-.04.43-.12.86-.26,1.27-.17.69-.42,1.32-.73,1.87-.14.28-.29.49-.44.62-.16.14-.39.29-.7.47-.24.1-.49.16-.75.18-.26.02-.53.03-.81.03s-.53,0-.75-.03c-.23-.02-.42-.13-.6-.34-.76-.8-1.33-1.66-1.71-2.6-.55-1.38-.97-2.78-1.25-4.18-.28-1.4-.5-2.83-.68-4.29-.17-1.66-.36-3.32-.57-4.99-.21-1.66-.36-3.32-.47-4.99-.1-1.97-.17-3.96-.18-5.95-.02-1.99-.03-3.99-.03-6,0-1.56.04-3.12.13-4.68.09-1.56.16-3.13.23-4.73.1-1.97.26-4.02.47-6.13.07-.59.19-1.18.36-1.77.17-.59.45-1.14.83-1.66.38-.55.85-.85,1.4-.88.48-.07.93-.05,1.35.05.42.1.78.4,1.09.88s.56.96.75,1.43c.19.47.32,1,.39,1.58.07.69.16,1.36.26,2,.1.64.21,1.31.31,2,.17.97.3,1.92.39,2.86.09.94.15,1.91.18,2.91.07,1.45.15,2.89.23,4.31.09,1.42.16,2.86.23,4.31.07,1.56.14,3.11.21,4.65.07,1.54.14,3.09.21,4.65.03.48.07.96.1,1.43.03.47.09.94.16,1.43h.26Z"/>
  </g>
</svg>